/* XPM */
static char *_8d0eab96b0f468ff90630632ee058ccFmLXyqL55A8hjD13[] = {
/* columns rows colors chars-per-pixel */
"64 64 218 2 ",
"   c #000000",
".  c #060A05",
"X  c #080E07",
"o  c #0A0C0A",
"O  c #020808",
"+  c #061404",
"@  c #0C120C",
"#  c #0D1A0C",
"$  c #10190E",
"%  c #091516",
"&  c #131413",
"*  c #151A15",
"=  c #1A1C1A",
"-  c #130802",
";  c #321405",
":  c #1C2C1A",
">  c #1A2719",
",  c #1D331B",
"<  c #0C2C09",
"1  c #21391D",
"2  c #193132",
"3  c #262925",
"4  c #2D322D",
"5  c #243723",
"6  c #313531",
"7  c #393D39",
"8  c #343A34",
"9  c #732B09",
"0  c #154C0F",
"q  c #12540B",
"w  c #145C0D",
"e  c #1C4518",
"r  c #1A5813",
"t  c #214E1C",
"y  c #16670E",
"u  c #17710E",
"i  c #19750F",
"p  c #1B6412",
"a  c #1D6B14",
"s  c #1F6818",
"d  c #1B7411",
"f  c #1D7B12",
"g  c #236A19",
"h  c #26751B",
"j  c #2A7C1C",
"k  c #247819",
"l  c #1A582A",
"z  c #1A4528",
"x  c #284623",
"c  c #2A5723",
"v  c #32582C",
"b  c #3B443B",
"n  c #3A5C35",
"m  c #2E5C3A",
"M  c #1E6C20",
"N  c #296923",
"B  c #2D7D21",
"V  c #2D7720",
"C  c #3B6A33",
"Z  c #3D7336",
"A  c #2F742D",
"S  c #40443E",
"D  c #426A3B",
"F  c #407737",
"G  c #575214",
"H  c #18484F",
"J  c #184F5B",
"K  c #2C4A49",
"L  c #1F5E6C",
"P  c #236C7F",
"I  c #2E6B6A",
"U  c #296D5E",
"Y  c #414541",
"T  c #454B45",
"R  c #474D49",
"E  c #4C524C",
"W  c #545A54",
"Q  c #535853",
"!  c #505C4D",
"~  c #596358",
"^  c #597855",
"/  c #487244",
"(  c #61705D",
")  c #56726E",
"_  c #646A64",
"`  c #687565",
"'  c #707A6E",
"]  c #777E77",
"[  c #9B370A",
"{  c #AF460F",
"}  c #1F8114",
"|  c #228316",
" . c #258219",
".. c #268C19",
"X. c #29871C",
"o. c #27921B",
"O. c #2A941C",
"+. c #2E9A1F",
"@. c #309C1F",
"#. c #2E8721",
"$. c #338D24",
"%. c #368729",
"&. c #2F9A20",
"*. c #339323",
"=. c #329D22",
"-. c #3A9B2A",
";. c #389828",
":. c #3F8335",
">. c #35A324",
",. c #38A626",
"<. c #39A927",
"1. c #3CA52A",
"2. c #3CAC29",
"3. c #3FB02C",
"4. c #46863C",
"5. c #489B39",
"6. c #42B42E",
"7. c #45B82F",
"8. c #4CA73A",
"9. c #45B731",
"0. c #45B931",
"q. c #49B934",
"w. c #4AB737",
"e. c #52BD3E",
"r. c #40AC2D",
"t. c #53C03E",
"y. c #4D8C43",
"u. c #538D48",
"i. c #529646",
"p. c #5E8958",
"a. c #5B9352",
"s. c #62885C",
"d. c #57A748",
"f. c #59BC46",
"g. c #65B355",
"h. c #72876D",
"j. c #6C9965",
"k. c #7B877A",
"l. c #7B9576",
"z. c #6C8C6F",
"x. c #59C146",
"c. c #72CC5F",
"v. c #68C756",
"b. c #77CD65",
"n. c #7DD26B",
"m. c #82937C",
"M. c #839F7F",
"N. c #828D7E",
"B. c #82A17F",
"V. c #8AD67A",
"C. c #28758B",
"Z. c #257994",
"A. c #307384",
"S. c #5D7D82",
"D. c #3191B3",
"F. c #4D858F",
"G. c #6E8B8A",
"H. c #449AB3",
"J. c #369DC2",
"K. c #3CA6CD",
"L. c #3CA1C6",
"P. c #3CA7D0",
"I. c #3CA9D1",
"U. c #45ACD2",
"Y. c #56B7D9",
"T. c #4FAECE",
"R. c #848A84",
"E. c #808680",
"W. c #8A9A85",
"Q. c #8C9D89",
"!. c #899587",
"~. c #919C8C",
"^. c #949B93",
"/. c #919791",
"(. c #8EA38B",
"). c #92A38D",
"_. c #9AA495",
"`. c #9BA39B",
"'. c #9EAB9B",
"]. c #96A593",
"[. c #A2AC9C",
"{. c #A4B19D",
"}. c #93AAAB",
"|. c #A3ACA2",
" X c #A6AAA6",
".X c #ACB3AC",
"XX c #AAB7A3",
"oX c #B2BCAB",
"OX c #B4BAB4",
"+X c #A4B3B1",
"@X c #97DD87",
"#X c #B2C4AB",
"$X c #BCC5B8",
"%X c #AEC0A7",
"&X c #C3CBBB",
"*X c #C7D3BE",
"=X c #C7CDC5",
"-X c #CACECA",
";X c #C4C8C5",
":X c #CDD5C7",
">X c #D3DCCB",
",X c #D4D8CF",
"<X c #DBDDDB",
"1X c #D6DAD4",
"2X c #DDE5D5",
"3X c #DEE2DD",
"4X c #D7E2D7",
"5X c #E0E7D8",
"6X c #E2E9DA",
"7X c #E0E8D7",
"8X c #E3E5E3",
"9X c #E6E9E6",
"0X c #EAECEA",
"qX c #E8EBE7",
"wX c #EFF0EF",
"eX c #F2F3F2",
"rX c #F6F8F6",
"tX c #FDFDFD",
/* pixels */
"                                                                                o 5 c 1 5 x C y.i.X.v ,                         ",
"                                                                              5 g.@Xb.q.0.0.b.@XV.q.2...t X                     ",
"                                                                            > g.V.f.6.6.=.e.@Xx.6.7.7.3.f e @                   ",
"                                                                          @ y.V.9.6.q.+.j b.f.7.7.0.6.7.6.| y e #               ",
"                                                                          c V.f.9.9.<.a <.f.9.9.q.6.9.9.9.6.=.O.| c @           ",
"                                                                        $ d.c.6.9.9.o.s 9.9.9.9.6.q.9.9.9.9.0.2.&.o.s +         ",
"                                                                        c V.q.6.9.,.y ,.9.9.9.9.q.9.9.9.>.O.2.q.q.<.} e         ",
"                                                                      $ g.b.6.9.9...w 9.9.9.9.9.6.9.9.>.} w >.0.0.6.&.p         ",
"                                                                      v @Xx.q.6.2.f  .q.9.9.9.9.9.q.9.O.d a <.9.0.q.<.u +       ",
"                                                                      4.@X0.6.9.>.w ,.9.q.9.9.9.9.9.6.| f a 2.9.9.9.<.i +       ",
"                                                                      %.V.6.0.0.O.q <.9.9.0.9.9.9.9.,.f d  .9.9.9.9.<.u +       ",
"                                                                    $ B 6.9.9.3...q =.9.9.9.9.9.9.9.&.u a =.6.9.9.9.=.y +       ",
"                                                                    c ;.$.>.=.O...q ..r.0.q.q.9.9.6.} i a <.6.q.q.0.o.q         ",
"                                                                  > f.6. .k o.o.f u a &.6.9.0.0.9.=.u f k 6.0.0.9.3.f e         ",
"                                                                  v n.7.6. .0 w w u w o.O.>.2.2.=.f d s >.9.9.9.6.&.d >         ",
"                                                                  / b.0.9.6.>.=. .a 0 p ......| u u k f 6.0.0.6.2.f r .         ",
"                                                      o & > * o   n V.q.6.9.6.9.9.2.=.o.a q u u u f a ,.6.9.3.>.} i ,           ",
"                                                    > @ & * @ @ . @ i.c.9.q.0.0.9.9.0.2.O.f q y y 0 O.......f u f x             ",
"                                                  * , N $.-.g N 5   > f.e.9.6.0.q.9.9.9.>.o.q a f u w p y d p w :               ",
"                                                @ 4.x.9.9.9.7.2.O.c O , g.f.6.q.9.9.9.9.<.o.y f O.O...f y w y 0 O               ",
"                                              . u.x.9.9.q.9.q.7.,.O.1   : d.>.>.>.<.<.,.O.} w ....f f f u w e .                 ",
"                                              1 b.6.9.9.9.9.6.6.q.o.V     @ 5 q w q y f f q B <.*.y w q q u ,                   ",
"                                              v c.9.9.9.9.6.7.q.9.@.O.$     . -.2.2.-.#.X.1.9.9.3.O.o.} u a o                   ",
"                                              v v.9.9.9.9.9.2.,.<.+.O.>     o 8.q.9.9.9.9.9.9.9.9.&.O.f u Z 8                   ",
"                                              v x.q.q.6.0.<.3.6.>.o.o.1 O # , d.6.q.9.9.q.6.9.9.7.@.O.i d .XwX4                 ",
"                                      o R R.` C f.2.1.r.0.6.6.%.;.<.#.c * 4 8.8.w.7.9.9.9.9.9.9.7.+...u A tXtXE.                ",
"            . x , X                 6 .XtXtXtXj.x.7.>.u.q.y..X4X3Xy.y r E ` X.w.f.7.q.7.9.9.q.9.6.O.f f (.OX.X X>               ",
"          . C V.n.5., : T `.~ &     _ ^.tXtXtX` (.(.j.C '.tXrX[.eXW. .e h.4Xc B w.6.7.7.9.0.9.6.>...u N wXtXtX0XE               ",
"          D b.-.7.t.X.#.d.].3       ` 4 ' eXeX X(.tXtX=X,XtXtX,X[.s.$.g n [.&X_.X.0.:.1.9.9.9.6.o.f f W.tX8X X.X9Xb             ",
"        $ b.w.r.#.<. .;.w.p.4 o     3   * ;XR.^.tX0X'.(.a.G.4.-.7.7.r.+.r ^.[.1Xu :.m.>.9.9.9.&.| u A 3XQ =   . 3 `.&           ",
"        , 0.7.9.6.j g 7.=.Q.tX_       . 3 !.h.&XW.p.t.0.q.7.$.#.#.-.7.+.f [.*X[.^ oXQ.+.9.7.>...u d |.3           & b           ",
"        v c.$.;.7.2.X.,.h _.^._ @   * R.eXj.u.6Xl.h k j j $.r.7.3.*.h @.r h.7X[.4X2XW.o.<.&...d d ^ !               &           ",
"        x q.9.1.B g p h g k.o       _ tX0XF ~.7X[.f.q.6.7.7.9.9.7.7.7.h $.0 >X7X^.>Xr O.O.O.i u < ] = & = =           .         ",
"        . n 1.7.>.p s o.s.6 o     & ,XtX-X8.V 7Xa.f.6.6.7.7.%.j.].|.x $.j ..XX7X[.5Xc  .g i w +   R /.9X9X8Xk.=                 ",
"        & OX-X!.b g X.j 9XE       7 tXtX3X*.k.2Xi.w.9.q.;.l.OX.XE .   + h >.[.5X7X{.*X$X^ D ! . 3 3XtXtXrX<X-X`.o               ",
"        3 T eXtX4X.Xs.h.0XQ =     E.tXtXrXy.$.'.p.;.%.D ] E.g + - 9 [ ; h ,.[.' Q.N.7X:X` ~ > * 3XtXtXOX_ 4 & 3 &               ",
"          ~ |.Y ] rX`.wXtX7     > 0XtXtXtXoX;.X.^ :X{.*X:X{.r r ; { 9 G j ,.oXW.#X{.{.l.m.o   OX9X_ 4 o                         ",
"          6 & o -X~ & Q rXT     7 k.~ |.eXtX`.^ 1X_.6X5X5Xs.#.;.h t g ;.#.#.~.#X#X#X#X#X#Xb Q  X=                               ",
"              o !.&     _ 4     * W.= 4 Y 9X.X' ~.:X5X5X5Xg $.h h j h $.7.:.W.#X7X*X#X#X#X( `.&                                 ",
"                =       o         K .     6 -XrX[.XX~.oX&Xf 7.7.7.6.7.6.7.4.m.>X7X:X#X#X#X!.R = & .                             ",
"                                  -         3 -X[.-XR.{._.f 2.7.q.q.6.9.7.4.m.5X5X:X#X%XW.|.<X0X8X.XW &                         ",
"                                        = Y E W 0X|.'._.2X/ +.7.6.9.9.9.7.%.W.6X5X&X#X~.tXtXtXtXtXtX3XE                         ",
"                                      T <XtXtXtXrX{.>X' >X*XC =.q.0.9.0.7.$.&X[.{.#XW.rXtXtXtXtXtXrX]                           ",
"                                    4 9XtXtXtXtXtX|.6Xk.).Q.XXZ 2.0.2.>.,.j [.[.).XXOXtXtXtXtXtXtXR .                           ",
"                                    R.OXOX.XOXwXtX_.2X6X>X&Xm._.=.6.6.=...^ oXm.#XW.tXtXtXtXtXtX.X=                             ",
"                                  = OX<XtXtXtXtX.XA.2X2X7X7X:Xl.f 6.6.O.F :X>Xm.#X[.tXtXtXrX/.8 o                               ",
"                                  E 0X^.R. X1X3XH.T.G.7X7X7X7X2XZ O...s.>X{.~.Q._.1XrXtXtXS                                     ",
"                                T G.S W E E K ) Y.K.K.G.:X7X7X2XXXN h.~.m.oXN.#X~ XX0X,X_ &                                     ",
"                              @ 4   . o     = T.T.P.U.T.F.h.&X2X7X4X3X4X>X&Xk.P ) _ 6 @                                         ",
"                                        . W F.Y.P.U.T.Y.J.C.J K ( G.z.z.) H Z.D.b                                               ",
"                                      = E.3XH.U.P.P.P.I.I.D.L H l M l % O C.I.J.K * O                                           ",
"                                    =  XtX}.Y.U.P.P.P.P.P.D.C.l ,.X.o.    L I.P.A.H 4 = &                                       ",
"                                  =  XtXtX}.U.P.P.P.I.I.J.Z.C.l 9.f k     2 I.J.R.%     @                                       ",
"                                o /.tXtXtX}.J.A.P.J.I.I.Z.H P.U $.O.<     % I.F.tX_                                             ",
"                                Q tXtXtXtX8XH 5 U U U.I.D.Z.Z.A 2.o.# O   % D.-XtXrX~ o                                         ",
"                                8 E.4 4 K  XI A 6.2.U D.P *.N 3.2.o.<     O }.tXtXtXtXE.=                                       ",
"                                        R eXeXG.L m ! S.# ;.r.9.>.O.X     ~ tXtXtXtXtXtX-XW &                                   ",
"                                      R 8XtXtX;X$XrXtXtXXXn a X.O.<     3 eXtXtXtXtXtXtXeX1X,XW .                               ",
"                                    R rXtXtXtXtXtXtXtXtXtXtXOXy. .    o ,XtXtXtXtXtXrX X`.R.W b *                               ",
"                                  & ;XrX-X|.;XtXtXtXtXtXtXtXtXwXS   .  XtXtXtXtXtXtX^.OX` R                                     ",
"                                  6 ] 6 T 6 7 R.4XtX;XR.E _ .XtX0X& E.tXtXtXtXtXtXrX|.E                                         ",
"                                  &           O _ ^.=       = R.-X3 wX[.T K S R k.] k.*                                         ",
"                                                8 o             3 E 4 o           o                                             ",
"                                                                3                                                               "
};
