/* XPM */
static char *f7ec7f3a1af44d1ca08700b9289266f3UqnxmwMIpUXVqGq5[] = {
/* columns rows colors chars-per-pixel */
"64 64 228 2 ",
"   c #13100D",
".  c #4F3914",
"X  c #6D3A2E",
"o  c #78430F",
"O  c #7D621B",
"+  c #795426",
"@  c #734635",
"#  c #7A612D",
"$  c #7D623D",
"%  c #534334",
"&  c #7B3D45",
"*  c #715143",
"=  c #7C6A51",
"-  c #7E6945",
";  c #7C7769",
":  c #717070",
">  c #585757",
",  c #9D550D",
"<  c #8D5D14",
"1  c #865B1A",
"2  c #985B14",
"3  c #874A0D",
"4  c #A5580D",
"5  c #B15E0C",
"6  c #AA5D13",
"7  c #B45D1A",
"8  c #8B661C",
"9  c #94651A",
"0  c #98761C",
"q  c #9E660E",
"w  c #AB630E",
"e  c #BC660D",
"r  c #A46412",
"t  c #AB6611",
"y  c #B46815",
"u  c #A07D1B",
"i  c #BB711D",
"p  c #965727",
"a  c #8B4A2A",
"s  c #956925",
"d  c #997B26",
"f  c #816538",
"g  c #97693B",
"h  c #8A7537",
"j  c #9A7734",
"k  c #8B6E29",
"l  c #A96628",
"z  c #B26B27",
"x  c #B7732A",
"c  c #A67730",
"v  c #CA6D0C",
"b  c #C36C0D",
"n  c #D36E0A",
"m  c #CA700D",
"M  c #DA760D",
"N  c #C66918",
"B  c #D56B16",
"V  c #C67319",
"C  c #D67617",
"Z  c #E3790D",
"A  c #ED7C0B",
"S  c #E8760C",
"D  c #FB7F06",
"F  c #F27E09",
"G  c #F87E08",
"H  c #E37C14",
"J  c #EA7D13",
"K  c #E77914",
"L  c #C77424",
"P  c #D97D23",
"I  c #933555",
"U  c #963E68",
"Y  c #AA3769",
"T  c #AC3C75",
"R  c #C33B7D",
"E  c #8E4C4E",
"W  c #876B4B",
"Q  c #987A44",
"!  c #987956",
"~  c #8F734C",
"^  c #A47942",
"/  c #B57B41",
"(  c #A84676",
")  c #B24A75",
"_  c #8B7760",
"`  c #837F7E",
"'  c #9F6774",
"]  c #A67478",
"[  c #AB6B7A",
"{  c #AA8B1A",
"}  c #AC9319",
"|  c #B4941D",
" . c #BB9E1A",
".. c #B69C1A",
"X. c #B38E1E",
"o. c #BDA117",
"O. c #9D873B",
"+. c #AA8423",
"@. c #B38A23",
"#. c #B49B26",
"$. c #A18A38",
"%. c #A79437",
"&. c #B19930",
"*. c #BDA42C",
"=. c #C09D1C",
"-. c #FF8106",
";. c #F5810D",
":. c #FB8108",
">. c #EB8118",
",. c #C8A91B",
"<. c #D7B51B",
"1. c #D5AF1D",
"2. c #E3BE1C",
"3. c #C69927",
"4. c #D19D2C",
"5. c #CCA123",
"6. c #D2A525",
"7. c #DCAC26",
"8. c #D4A329",
"9. c #DAA928",
"0. c #D5A924",
"q. c #DFB125",
"w. c #CBB137",
"e. c #E2B325",
"r. c #EABC23",
"t. c #E7BA23",
"y. c #E5C11A",
"u. c #EBC51B",
"i. c #EEC81B",
"p. c #F5CB1D",
"a. c #F9CF1D",
"s. c #FFD61C",
"d. c #F7D01C",
"f. c #EEC222",
"g. c #F3C922",
"h. c #FED622",
"j. c #FED82E",
"k. c #FDD835",
"l. c #FED939",
"z. c #F4D236",
"x. c #9B824C",
"c. c #998457",
"v. c #9F914D",
"b. c #AB9A4A",
"n. c #A38559",
"m. c #A69456",
"M. c #B6A457",
"N. c #BBA94D",
"B. c #9B8876",
"V. c #A98A63",
"C. c #A89764",
"Z. c #B8956B",
"A. c #A79977",
"S. c #B8A868",
"D. c #ADA271",
"F. c #BBA878",
"G. c #C7AE48",
"H. c #C8A577",
"J. c #D3AE7D",
"K. c #CAB875",
"L. c #D4B07E",
"P. c #D0BA64",
"I. c #DCC24B",
"U. c #FDDA46",
"Y. c #FADB58",
"T. c #E3C959",
"R. c #DBC362",
"E. c #FEDF65",
"W. c #F0D66E",
"Q. c #FDE06C",
"!. c #FEE277",
"~. c #B95386",
"^. c #B0758C",
"/. c #CA4885",
"(. c #CA5588",
"). c #CC5991",
"_. c #DA5693",
"`. c #D5558B",
"'. c #E9599D",
"]. c #E6569A",
"[. c #DA6D9E",
"{. c #C86F93",
"}. c #E5609D",
"|. c #D979A1",
" X c #E863A1",
".X c #858383",
"XX c #8E8A88",
"oX c #999796",
"OX c #9D9386",
"+X c #A49E9A",
"@X c #A39C80",
"#X c #A9A289",
"$X c #ACA69D",
"%X c #BBB38D",
"&X c #AAA6A5",
"*X c #AAA7A6",
"=X c #B6B4AA",
"-X c #B6B4B3",
";X c #BABBBB",
":X c #B1AFAE",
">X c #D0B383",
",X c #E580AC",
"<X c #C3BEBA",
"1X c #E2CF86",
"2X c #EFDA8C",
"3X c #FDE695",
"4X c #FEE488",
"5X c #C9C3BA",
"6X c #CCCCCC",
"7X c #C7C5C4",
"8X c #D2CECC",
"9X c #D7D0CE",
"0X c #D3D2D2",
"qX c #DDD6D4",
"wX c #DFD8D6",
"eX c #DBDBDB",
"rX c #E2DDDC",
"tX c #E1D3C9",
"yX c #E5E1DF",
"uX c #F1E7DE",
"iX c #EBEAEA",
"pX c #E6E4E4",
"aX c #F1EEED",
"sX c #FFF7EF",
"dX c #F5F4F3",
"fX c #FFFFFF",
"gX c #F9F7F7",
"hX c #EFEFF0",
/* pixels */
"-.-.-.-.-.-.-.-.-.-.-.-.-.-.-.-.-.-.-.-.-.-.-.-.-.-.-.-.-.-.-.-.-.-.-.-.-.-.-.-.-.-.-.-.-.-.:.:.P p E X p B D G D D -.-.-.-.-.-.",
"-.-.-.-.-.-.-.-.-.-.-.-.-.-.-.-.-.-.-.-.-.-.-.-.-.-.-.-.-.-.-.-.-.-.-.-.-.-.-.-.-.-.-.-.-.-.:.l ' ^.[.{.~.) a K D D -.-.-.-.-.-.",
"-.-.-.-.-.-.-.-.-.-.-.-.-.-.-.-.-.-.-.-.-.-.-.-.-.-.-.-.-.-.-.-.-.-.-.-.-.-.-.-.-.-.-.-.-.-.z ^.|.[. X).].`._.I K D D -.-.-.-.-.",
"-.-.-.-.-.-.-.-.-.-.-.-.-.-.-.-.-.-.-.-.-.-.-.-.-.-.-.-.-.-.-.-.-.-.-.-.-.-.-.-.-.-.-.-.-.J ] |. X~.~.~.'.].`./.a D D D -.-.-.-.",
"-.-.-.-.-.-.-.-.-.-.-.-.-.-.-.-.-.-.-.-.-.-.-.-.-.-.-.-.-.-.-.-.-.-.-.-.-.-.-.-.-.-.-.-.:.p ^.[.T U @ p E ~.(.~.T S -.-.-.-.-.-.",
"-.-.-.-.-.-.-.-.-.-.-.-.-.-.-.-.-.-.-.-.-.-.-.-.-.-.-.-.-.-.-.-.-.-.-.-.-.-.-.-.-.M M -.:.' ^. X/.a D D n {.].(.R B -.-.-.-.-.-.",
"-.-.-.-.-.-.-.-.-.-.-.-.-.-.-.-.-.-.-.-.-.-.-.-.-.-.-.-.-.-.-.-.-.-.-.-.-.-.-.-.V I.2.y :.[ ).(.T p D D S ] ).'.Y e -.-.-.-.-.-.",
"-.-.-.-.-.-.-.-.-.-.-.-.-.-.-.-.-.-.-.-.-.-.-.-.-.-.-.-.-.-.-.-.-.-.-.-.-.-.-.-.j s.s.8 :.a N.w.E E B K g |.'.].I B -.-.-.-.-.-.",
"-.-.-.-.-.-.-.-.-.-.-.-.-.-.-.-.-.-.-.-.-.-.-.-.-.-.-.-.-.-.-.-.-.-.-.-.-.:.k { O.s.s.8 M G.h.s.s (.] E {.) ].( X D :.-.-.-.-.-.",
"-.-.-.-.-.-.-.-.-.-.-.-.-.-.-.-.-.-.-.-.-.-.-.-.-.-.-.-.-.-.-.-.-.-.-.-.-.M T.s.@.s.s.0 j h.s.s.E '.~.'.).`./.Y 7 D :.:.-.-.-.-.",
"-.-.-.-.-.-.-.-.-.-.-.-.-.-.-.-.-.-.-.-.-.-.-.-.-.-.-.-.-.-.-.-.-.-.-.-.-.H R.s.| s.s. .*.h.s.| Y /.]./.'.~.R a G J D :.-.-.-.-.",
"-.-.-.-.-.-.-.-.-.-.-.-.-.-.-.-.-.-.-.-.-.-.-.-.-.-.-.-.-.-.-.-.-.-.-.-.-.:.v.h.} s.s.o.h.s.s.8 1 X ( T Y @ 7 -.D :.:.:.-.-.-.-.",
"-.-.-.-.-.-.-.-.-.-.-.-.-.-.-.-.-.-.-.-.-.-.-.-.-.-.-.-.-.-.-.-.-.-.-.-.-.-.y Y.d.d.s.<.s.s.y.0 6 5.+.c 6 :.-.-.-.-.-.-.-.-.-.-.",
"-.-.-.-.-.-.-.-.-.-.-.-.-.-.-.-.-.-.-.-.-.-.-.-.-.-.-.-.-.-.-.-.-.-.-.-.-.-.:.x.s.s.s.s.s.s.2.d.} s.a.&.n -.-.-.-.-.-.-.-.-.-.-.",
"-.-.-.-.-.-.-.-.-.-.-.-.-.-.-.-.-.-.-.-.-.-.-.-.-.-.-.-.-.-.-.-.-.-.-.-.-.-.-.V U.s.s.s.s.s.s.s.s.a.s.3.H -.-.-.-.-.-.-.-.-.-.-.",
"-.-.-.-.-.-.-.-.-.-.-.-.-.-.-.-.-.-.-.-.-.-.-.-.-.-.-.-.-.-.-.-.-.-.-.-.-.-.-.;.G.s.s.s.s.s.s.s.s.s.s.@.A -.-.-.-.-.-.-.-.-.-.-.",
"-.-.-.-.-.-.-.-.-.-.-.-.-.-.-.-.-.-.-.-.-.-.-.-.-.-.-.-.-.-.-.-.-.-.-.-.-.-.-.-.j s.s.s.s.s.s.s.s.s.s.9 :.-.-.-.-.-.-.-.-.-.-.-.",
"-.-.-.-.-.-.-.-.-.-.-.-.-.-.-.-.-.-.-.-.-.-.-.-.-.-.-.-.-.-.-.-.-.-.-.-.-.-.-.-.i k.s.s.s.s.s.s.s.p.2.8 -.-.-.-.-.-.-.-.-.-.-.-.",
"-.-.-.-.-.-.-.-.-.-.-.-.-.-.-.-.-.-.-.-.-.-.-.-.-.-.-.-.-.-.-.-.-.-.-.-.-.-.-.-.-.$.s.s.s.s.s.s.s.u.4.e -.-.-.-.-.-.-.-.-.-.-.-.",
"-.-.-.-.-.-.-.-.-.-.-.-.-.-.-.-.-.-.-.-.-.-.-.-.-.-.-.-.-.-.-.-.-.-.-.-.-.-.-.-.:.N.s.s.s.s.s.s.s.p.8 G -.-.-.H -.-.-.-.-.-.-.-.",
"-.-.-.-.-.-.-.-.-.S 5 5 5 A -.-.-.-.-.-.-.-.-.-.-.-.-.-.-.-.-.-.-.-.-.-.-.-.-.-.i Q.s.s.s.h.h.s.s.e.b -.-.-.-.-.-.-.-.-.-.-.-.-.",
"-.-.-.-.-.-.-.:., e G -.G y 2 V V V ;.-.-.-.-.-.-.-.-.-.-.-.-.-.-.-.-.-.-.-.-.-.j l.s.s.s.s.s.s.s.6.M -.-.-.-.-.-.-.-.-.-.-.-.-.",
"-.-.-.-.-.-.-., A -.:.B j S.2X3X3X2XK.Q i :.-.-.-.-.-.-.-.-.-.-.-.-.-.-.-.-.:.;.K.s.s.s.s.s.s.s.s.@.F -.-.-.-.-.-.-.-.-.-.-.-.-.",
"-.-.-.-.-.-.n 3 b M g 1X!.Y.U.l.l.U.Q.4X2Xx.C -.-.-.-.-.-.-.-.-.-.-.-.-.-.-.:.i Q.s.s.s.s.s.s.s.s.0 D -.-.-.H -.-.-.-.-.-.-.-.-.",
"-.-.-.-.D 4 o S y S.Y.j.s.s.s.s.h.s.s.s.l.Q.K.z :.-.-.-.-.-.-.-.-.-.-.-.-.-.-.O.U.s.s.s.s.s.s.s.d.1 -.-.-.-.-.-.-.-.-.-.-.-.-.-.",
"-.-.-.-., G e 6 P.j.s.s.s.s.s.s.s.s.s.s.s.s.k.W.s -.-.-.-.-.-.-.-.-.-.-.-.-.A K.h.s.s.s.s.s.s.s.g.9 -.-.-.-.:.-.-.-.-.-.-.-.-.-.",
"-.-.-.v v -.m $.s.s.s.s.s.s.s.s.s.s.s.s.s.s.s.h.W.s Z -.-.-.-.-.-.-.-.-.-.D V Q.s.s.s.s.s.s.s.s.r.r -.-.-.-.J -.-.-.-.-.-.-.-.-.",
"-.-.-.5 :.F +.} s.s.s.s.s.s.s.s.s.s.s.s.s.s.s.s.j.j.$.>.-.-.-.-.-.-.-.-.-.D j Y.s.s.s.s.s.s.s.s.t.y -.-.-.-.-.-.-.-.-.-.-.-.-.-.",
"-.-.D 5 -.t d.y. .s.s.s.s.s.s.s.s.s.s.s.s.s.s.y.M.:X<XOXx -.-.-.-.-.-.-.-.:.C.k.s.s.s.s.s.s.s.s.7.m -.-.-.-.-.-.-.-.-.-.-.-.-.-.",
"-.-.D v Z 0 s.s.d.s.s.s.s.s.s.s.s.s.s.s.s.s.<.=XfXfXfXfX: y -.-.-.-.-.-.-.C 2Xs.s.s.s.s.s.s.s.s.3.M -.-.-.-.-.-.-.-.-.-.-.-.-.-.",
"-.-.-.:.o <.s.s.s.s.s.s.s.s.s.s.s.s.h.s.s.s.D.fXfXfXfXfXeX.X;.-.-.-.-.-.-.x Q.s.s.s.s.s.s.s.s.s.u A -.-.-.-.-.-.-.-.-.-.-.-.-.-.",
"-.-.-.-.w ,.s.s.s.s.s.s.s.s.s.s.s.s.s.s.s.y.6XfXfXfXfXfXfXiXC :.-.-.-.-.-.x.Y.s.s.s.s.s.s.s.s.d.s -.-.-.-.-.-.-.-.-.-.-.-.-.-.-.",
"-.-.-.-.w ,.u.s.s.s.s.s.s.s.s.s.s.u.%.D.D.h 8XfXfXfXfXfXfXhXV -.-.-.-.-.;.R.l.h.s.s.s.s.s.s.s.g.1 D -.-.-.-.-.-.-.-.-.-.-.-.-.-.",
"-.-.-.-.w r.s.s.s.s.s.s.s.s.s.s.,.=XfXfXfXfX` ;XfXfXfX:XD.C.i :.-.-.-.-.i 3Xh.h.s.s.s.s.s.s.s.r.9 D -.-.-.-.-.-.-.-.-.-.-.-.-.-.",
"-.-.-.-.b q.p.s.s.s.s.s.s.s.s.y.=XfXfXfXfXfXoX: eXeXA.Y.h.s.#.;.-.-.-.-.j !.d.s.s.s.s.s.s.s.s.t.r -.-.-.-.-.-.-.-.-.-.-.-.-.-.-.",
"-.-.-.D A { q.d.h.s.s.s.s.s.s.%.fXfXfXfXfXfXfXiX; N.k.s.s.s.1.M -.-.-.-.C.Y.s.s.s.h.s.s.s.s.s.7.e -.-.-.-.-.-.-.-.-.-.-.-.-.-.-.",
"-.-.-.-.-.9 7.e.s.s.s.s.s.s.s.m.fXfXfXfXfXfXfXfXb.s.s.s.s.p.+ z C :.-.K 1XU.s.s.s.s.s.s.s.s.s.4.m :.-.-.-.-.-.-.-.-.-.-.-.-.-.-.",
"-.-.-.-.-.Z X.9.t.s.s.s.s.s.s.b.fXfXfXfXfXfXfXfXb.s.s.s.e.# n.L.J.! z z 3Xk.s.s.s.s.s.s.s.s.h.3.M -.-.-.-.-.-.-.-.-.-.-.-.-.-.-.",
"-.-.-.-.-.-.r 0.9.q.d.s.s.s.s.o.qXfXfXfXfXfXfX8X,.s.p.+.$ Z.J.L.J.J.1X_ S.h.s.s.s.s.s.s.s.s.p.+.A -.-.M :.-.-.-.-.-.-.-.-.-.-.-.",
"-.-.-.-.-.-.D < 0.9.q.p.s.s.s.s.c.yXdXgXgXaX0X%.s.<.f V.J.L.L.L.J.J.L.>X#X} s.s.s.s.s.s.s.s.u.d ;.-.-.-.-.-.-.-.-.-.-.-.-.-.-.-.",
"-.-.-.-.-.-.-.-.< 7.9.9.8 } i.s.i.v.=XqX7XOX#.s.1.~ J.L.L.L.L.L.L.L.L.L.>XH.d s.s.s.s.s.s.s.t.s -.-.-.-.-.-.-.-.-.-.-.-.-.-.-.-.",
"-.-.-.-.-.-.-.-.G < 6.9.0 2...o.s.s.y.,.<.d.d.2.c.L.J.L.L.L.L.L.L.L.L.L.L.L.- s.s.s.s.s.s.s.e.1 -.-.-.-.-.-.-.-.-.-.-.-.-.-.-.-.",
"-.-.-.-.-.-.-.-.-.-.2 =.3.+.e.y.i.s.s.s.s.s.s.O.L.L.L.L.L.L.L.L.L.L.L.L.L.H.# s.s.s.s.s.s.s.9.1 -.-.-.-.-.-.-.-.-.-.-.-.-.-.-.-.",
"-.-.-.-.-.-.-.-.-.e , . X.0 9.q.d.s.s.s.s.s.#.F.L.L.L.L.L.L.L.L.L.L.L.L.H.W  .s.s.s.s.s.s.s.8.9 -.-.-.-.-.-.-.-.-.-.-.-.-.-.-.-.",
"-.-.-.-.-.-.-.-.-.D , -.v . X.@.7.s.s.s.s.s.O.L.L.L.L.L.L.L.L.L.L.L.J.Z.! ; %XM.&.,.d.s.s.s.4.6 -.-.-.-.-.-.-.-.-.-.-.-.-.-.-.-.",
"-.-.-.-.-.-.-.-.-.-.S 4 -.e  .7.9.7.s.s.s.d.c.L.L.L.L.L.L.L.L.L.L.J.* Z.c.;XfXfXfXiX:XM.,.p.4.t -.-.-.-.-.-.-.-.-.-.-.-.-.-.-.-.",
"-.-.-.-.-.-.-.-.-.-.-.n b q 5.O d 9.t.s.s.u.V.J.L.L.L.L.L.L.L.L.L.C.  J.! ;XfXfXfXfXfXfXiX#Xj V -.-.-.-.-.-.-.-.-.-.-.-.-.-.-.-.",
"-.-.-.-.-.-.-.-.-.-.-.-.:.w 6.0 4.6.6.f.s.d.! >XL.L.L.L.L.L.L.L.L.J.H.H.% &XoX0XfXfXfXfXfXiX8X_ >.-.-.-.-.-.-.-.-.-.-.-.-.-.-.-.",
"-.-.-.-.-.-.-.-.-.-.-.-.-.G 1 5.3.8 0.9.p.s.Q L.L.L.L.>XL.L.L.L.J.J.m.> 6XfX&XoX7XfXfXfXfXrXrXrXx -.-.-.-.-.-.-.-.-.-.-.-.-.-.-.",
"-.-.-.-.-.-.-.-.-.-.-.-.-.-.:.v v t 0.9.7.s.| F.L.L.L.J.L.L.L.L.>XJ.n.= fXfX+XeXoX0XfXfXfXqXqX9XV -.-.-.-.-.-.-.-.-.-.-.-.-.-.-.",
"-.-.-.-.-.-.-.-.-.-.-.-.-.-.-.-.-.-.< 7.9.t.s.d H.J.L.L.L.L.L.L.J.Z.k 0.#XfX*X0XqXXXyXfXdXqXqX*X>.-.-.-.-.-.-.-.-.-.-.-.-.-.-.-.",
"-.-.-.-.-.-.-.-.-.-.-.-.-.-.-.-.-.-.A u 9.9.p.s.O.Z.L.L.L.L.L.H.! s q.f.y.m.B.8X6XXX:XfXpXqXqX_ -.-.-.-.-.-.-.-.-.-.-.-.-.-.-.-.",
"-.-.-.-.-.-.-.-.-.-.-.-.-.-.-.-.-.-.-.t 6.9.7.h.s.=.k W W W $ k 3.f.g.s.s.s.o.XX> 0XfXfXrXqXqXl -.-.-.-.-.-.-.-.-.-.-.-.-.-.-.-.",
"-.-.-.-.-.-.-.-.-.-.-.-.-.-.-.-.-.-.-.-.8 7.9.r.s.s.a.p.t.t.f.f.o.%.#.y.s.s.s.$X7XoXfXiXqXqX$XK -.-.-.-.-.-.-.-.-.-.-.-.-.-.-.-.",
"-.-.-.-.-.-.-.-.-.-.-.-.-.-.-.-.-.-.-.D M X.9.9.d.s.s.s.y.*.F.5XeX;XgX7X#Xb.o.A.fXeXXXrXqXqXg -.-.-.-.-.-.-.-.-.-.-.-.-.-.-.-.-.",
"-.-.-.-.-.-.-.-.-.-.-.-.-.-.-.-.-.-.-.D D 1 7.9.2.,.N.%X0XfXfXfXgX&XfXfXfXfXiXiXfXfXpX` qX&XH -.-.-.-.-.-.-.-.-.-.-.-.-.-.-.-.-.",
"-.-.-.-.-.-.-.-.-.-.-.-.-.-.-.-.-.-.-.-.l .Xf V.-XhXfXfXfXfXfXfXfXoXgXfXfXfXfXfXfXfXfXpX` l -.-.-.-.-.-.-.-.-.-.-.-.-.-.-.-.-.-.",
"-.-.-.-.-.-.-.-.-.-.-.-.-.-.-.-.-.-.-.-.Q rXqXqXdXfXfXfXfXfXfXfXfX:XpXfXfXfXfXfXfXfXfXfX0Xx -.-.-.-.-.-.-.-.-.-.-.-.-.-.-.-.-.-.",
"-.-.-.-.-.-.-.-.-.-.-.-.-.-.-.-.-.-.-.-.C 7XqXqXpXfXfXfXfXfXfXfXfXeX-XgXfXfXfXfXfXfXfXfXfX<XP :.-.-.-.-.-.-.-.-.-.-.-.-.-.-.-.-.",
"-.-.-.-.-.-.-.-.-.-.-.-.-.-.-.-.-.-.-.-.D ! rXqXqXfXfXfXfXfXfXdX6X-X&XiXfXfXfXfXfXfXfXfXfXfX$XJ -.-.-.-.-.-.-.-.-.-.-.-.-.-.-.-.",
"-.-.-.-.-.-.-.-.-.-.-.-.-.-.-.-.-.-.-.-.:.C oX*X&X=X-X-X:X*X&X*X8XaXdXfXfXfXfXfXfXfXfXfXfXfXgXB.>.-.-.-.-.-.-.-.-.-.-.-.-.-.-.-.",
"-.-.-.-.-.-.-.-.-.-.-.-.-.-.-.-.-.-.-.-.;.L W oXoX7XdXgXgXgXfXfXfXfXfXfXfXfXfXfXfXfXfXfXfXfXfXfXeXOX/ >.-.-.-.-.-.-.-.-.-.-.-.-.",
"-.-.-.-.-.-.-.-.-.-.-.-.-.-.-.-.:.:.G ^ $XyXdXfXgX6X&XeXfXfXfXfXfXfXfXfXfXfXfXfXfXfXfXfXfXfXfXfXfXfXfX6X! >.-.-.-.-.-.-.-.-.-.-.",
"-.-.-.-.-.-.-.-.-.-.-.-.-.-.-.-.:.H B.tXuXsXsXsXsXsXsX<X<XsXsXsXsXsXsXsXsXsXsXsXsXsXsXsXsXsXsXsXsXsXsXsXsX5Xz -.-.-.-.-.-.-.-.-."
};
