/* XPM */
static char *_1c5b0f27404484cb32231a76d9fe1b7nyTk4ktOJMsJjtfk[] = {
/* columns rows colors chars-per-pixel */
"64 64 213 2 ",
"   c gray17",
".  c #6B571D",
"X  c #79641F",
"o  c #795E3A",
"O  c #725B36",
"+  c #786037",
"@  c #54442A",
"#  c #1E145C",
"$  c #24177A",
"%  c #3C2A7B",
"&  c #352A6E",
"*  c #372F51",
"=  c #45375D",
"-  c #493868",
";  c #473579",
":  c #412F6E",
">  c #594746",
",  c #584759",
"<  c #6C5546",
"1  c #786954",
"2  c #574977",
"3  c #726365",
"4  c #7A7572",
"5  c #6F6E7F",
"6  c #856F1E",
"7  c #9A7B24",
"8  c #846936",
"9  c #8A7348",
"0  c #8D7855",
"q  c #967C56",
"w  c #927B4C",
"e  c #837A79",
"r  c #B89C1D",
"t  c #A88F1B",
"y  c #BCA11E",
"u  c #9F8023",
"i  c #9D8924",
"p  c #9C843B",
"a  c #A38323",
"s  c #A78926",
"d  c #B38F22",
"f  c #AE9224",
"g  c #BC9527",
"h  c #B89526",
"j  c #AD9333",
"k  c #AA9333",
"l  c #BAA127",
"z  c #B8A135",
"x  c #C4A51E",
"c  c #D9B81F",
"v  c #C39C26",
"b  c #C79E28",
"n  c #C6A422",
"m  c #CDA329",
"M  c #C5A827",
"N  c #DAAE27",
"B  c #D6AA29",
"V  c #DAAE28",
"C  c #D3A928",
"Z  c #DDB127",
"A  c #DAB624",
"S  c #D4B83A",
"D  c #E6BB25",
"F  c #EABE25",
"G  c #E1B428",
"H  c #FDD31F",
"J  c #EDC323",
"K  c #EEC921",
"L  c #EBC324",
"P  c #F2C723",
"I  c #F4CB21",
"U  c #F8CF21",
"Y  c #FDD420",
"T  c #FBD428",
"R  c #FCD734",
"E  c #FCD73A",
"W  c #E9C733",
"Q  c #9B8544",
"!  c #97824C",
"~  c #8D835A",
"^  c #9D8758",
"/  c #A48B49",
"(  c #A79957",
")  c #A58D51",
"_  c #B6A556",
"`  c #968D6D",
"'  c #9E9263",
"]  c #968877",
"[  c #9A947A",
"{  c #8C876B",
"}  c #AB8B62",
"|  c #A99A69",
" . c #B5986D",
".. c #A59C74",
"X. c #B59F7C",
"o. c #B9AA66",
"O. c #ABA37E",
"+. c #B9A574",
"@. c #D3B646",
"#. c #D6BA58",
"$. c #C9B452",
"%. c #CEAE7D",
"&. c #C5A475",
"*. c #D0AF7E",
"=. c #CBB57A",
"-. c #D0B07F",
";. c #D6B968",
":. c #DEC44D",
">. c #DAC251",
",. c #FBD947",
"<. c #F9DB57",
"1. c #E0C75F",
"2. c #DBC665",
"3. c #F4DA67",
"4. c #EDD56D",
"5. c #FBE178",
"6. c #0F0498",
"7. c #130898",
"8. c #2A1C99",
"9. c #301F98",
"0. c #2B1B8F",
"q. c #3D3197",
"w. c #362992",
"e. c #1206A9",
"r. c #1608BB",
"t. c #271AAA",
"y. c #2617B7",
"u. c #301EA7",
"i. c #2E23B6",
"p. c #3328B8",
"a. c #372CB6",
"s. c #413485",
"d. c #403499",
"f. c #483FAC",
"g. c #595188",
"h. c #625B96",
"j. c #6E6893",
"k. c #635BA5",
"l. c #7E7AA3",
"z. c #1B0CC6",
"x. c #1A0AD8",
"c. c #2314C3",
"v. c #2314D8",
"b. c #3529C7",
"n. c #1D0CE3",
"m. c #1C0BEC",
"M. c #1606E5",
"N. c #1A09F2",
"B. c #1806FF",
"V. c #1A08F9",
"C. c #1807F6",
"Z. c #1F10E7",
"A. c #2616E1",
"S. c #827C95",
"D. c #7F8194",
"F. c #898683",
"G. c #918887",
"H. c #999798",
"J. c #938E94",
"K. c #A69F99",
"L. c #A8A288",
"P. c #ACA798",
"I. c #B1AB92",
"U. c #B0A882",
"Y. c #9A9BA3",
"T. c #A09CA3",
"R. c #9AA0A3",
"E. c #A8A9A8",
"W. c #B1ACA5",
"Q. c #B5B2A3",
"!. c #BCB9AC",
"~. c #A9B1B4",
"^. c #AFB7BB",
"/. c #B3B3B2",
"(. c #B2BBBE",
"). c #BDBDBD",
"_. c #BAB7B3",
"`. c #D0B081",
"'. c #D0B794",
"]. c #C6BDBB",
"[. c #C5BBBA",
"{. c #C1BEAE",
"}. c #BFC3B7",
"|. c #DAC19A",
" X c #F7E082",
".X c #C8C3BE",
"XX c #B4BEC1",
"oX c #BABAC3",
"OX c #B8C1C5",
"+X c #BAC4C7",
"@X c #C5C5C6",
"#X c #CECDCC",
"$X c #C9C5C5",
"%X c #D1CAC8",
"&X c #C3CED2",
"*X c #C7D2D7",
"=X c #CBD5DA",
"-X c #D3D3D2",
";X c #DBDBDB",
":X c #DAD5D4",
">X c #D1D0CE",
",X c #E2DFDF",
"<X c #E0E0DF",
"1X c #E0DFE1",
"2X c #D8E4E9",
"3X c #DDE9F0",
"4X c #E3E3E4",
"5X c #ECECEC",
"6X c #E7F5FC",
"7X c #E8F7FC",
"8X c #F3F3F3",
"9X c #FEFEFE",
"0X c #F0EEEC",
/* pixels */
"B.B.B.B.B.B.B.B.B.B.B.B.B.B.B.B.B.B.B.B.B.B.B.B.B.B.B.B.B.B.B.B.B.B.B.B.B.B.B.B.B.B.B.B.B.B.B.B.B.B.B.B.B.B.B.B.B.B.B.B.B.B.B.B.",
"B.B.B.B.B.B.B.B.B.B.B.B.B.B.B.B.B.B.B.B.B.B.B.B.B.B.B.B.B.B.B.B.B.B.B.B.B.B.B.B.B.B.B.B.B.B.B.B.B.B.B.B.B.B.B.B.B.B.B.B.B.B.B.B.",
"B.B.B.B.B.B.B.B.B.B.B.B.B.B.B.B.B.B.B.B.B.B.B.B.B.B.B.B.B.B.B.B.B.B.B.B.B.B.B.B.B.B.B.B.B.B.B.B.B.B.B.B.B.B.B.B.B.B.B.B.B.B.B.B.",
"B.B.B.B.B.B.B.B.B.B.B.B.B.B.B.B.B.B.B.B.B.B.B.B.B.B.B.B.B.C.r.e.6.6.e.r.r.B.B.B.B.B.B.B.B.B.B.B.B.B.B.B.B.B.B.B.B.B.B.B.B.B.B.B.",
"B.B.B.B.B.B.B.B.B.B.B.B.B.B.B.B.B.B.B.B.B.B.B.B.B.B.B.B.z.e.x.6.x.6.V.B.M.7.B.B.B.B.B.B.B.B.B.B.B.B.B.B.B.B.B.B.B.B.B.B.B.B.B.B.",
"B.B.B.B.B.B.B.B.B.B.B.B.B.B.B.B.B.B.B.B.B.B.B.B.B.B.B.M.e.B.6.y.9.% 2 q.e.e.x.B.B.B.B.B.B.B.B.B.B.B.B.B.B.B.B.B.B.B.B.B.B.B.B.B.",
"B.B.B.B.B.B.B.B.B.B.B.B.B.B.B.B.B.B.B.B.B.B.B.B.B.B.B.6.z.& X I H H Y R 3.| & N.B.B.B.B.B.B.B.B.B.B.B.B.B.B.B.B.B.B.B.B.B.B.B.B.",
"B.B.B.B.B.B.B.B.B.B.B.B.B.B.B.B.B.B.B.B.B.B.B.B.B.B.B.# 7 P x H Y H Y Y H T 3.e v.B.B.B.B.B.B.B.B.B.B.B.B.B.B.B.B.B.B.B.B.B.B.B.",
"B.B.B.B.B.B.B.B.B.B.B.B.B.B.B.B.B.B.B.B.B.B.B.B.B.B.8.a L Y H H Y Y Y Y H Y H <.e Z.B.B.B.B.B.B.B.B.B.B.B.B.B.B.B.B.B.B.B.B.B.B.",
"B.B.B.B.B.B.B.B.B.B.B.B.B.B.B.B.B.B.B.B.B.B.B.B.B.x.a B U Y Y H Y H H Y Y Y H Y 5.s.B.B.B.B.B.B.B.B.B.B.B.B.B.B.B.B.B.B.B.B.B.B.",
"B.B.B.B.B.B.B.B.B.B.B.B.B.B.B.B.B.B.B.B.B.B.B.B.B.% V V Y Y Y Y Y H Y Y Y Y Y Y T O.m.B.B.B.B.B.B.B.B.B.B.B.B.B.B.B.B.B.B.B.B.B.",
"B.B.B.B.B.B.B.B.B.B.B.B.B.B.B.B.B.B.B.B.B.B.B.B.V.< B Z Y Y Y Y Y Y Y Y Y H Y Y Y  Xi.B.B.B.B.B.B.B.B.B.B.B.B.B.B.B.B.B.B.B.B.B.",
"B.B.B.B.B.B.B.B.B.B.B.B.B.B.B.B.B.B.B.B.B.B.B.B.V.s B N Y Y Y Y Y Y Y Y Y H Y H H <.g.B.B.B.B.B.B.B.B.B.B.B.B.B.B.B.B.B.B.B.B.B.",
"B.B.B.B.B.B.B.B.B.B.B.B.B.B.B.B.B.B.B.B.B.B.B.B.B.h V N H Y Y H Y H Y H Y Y Y Y Y R { B.B.B.B.B.B.B.B.B.B.B.B.B.B.B.B.B.B.B.B.B.",
"B.B.B.B.B.B.B.B.B.B.B.B.B.B.B.B.B.B.B.B.B.B.B.B.V.7 B B Y Y Y Y Y H H H Y Y H Y Y H =.Z.B.B.B.B.B.B.B.B.B.B.B.B.B.B.B.B.B.B.B.B.",
"B.B.B.B.B.B.B.B.B.B.B.B.B.B.B.B.B.B.B.B.B.B.B.B.B.o B V Y Y H Y c y y I Y H Y K y M 4.2 B.B.B.B.B.B.B.B.B.B.B.B.B.B.B.B.B.B.B.B.",
"B.B.B.B.B.B.B.B.B.B.B.B.B.B.B.B.B.B.B.B.B.B.B.B.B.- N B I H L ' -X8X0XW.l K ( }.0X<XP.{ V.B.B.B.B.B.B.B.B.B.B.B.B.B.B.B.B.B.B.B.",
"B.B.B.B.B.B.B.B.B.B.B.B.B.B.B.B.B.B.B.B.B.B.B.B.B.t.G B J H ' 9X9X9X9X9X>X{ 8X9X9X9X9XH.N.B.B.B.B.B.B.B.B.B.B.B.B.B.B.B.B.B.B.B.",
"B.B.B.B.B.B.B.B.B.B.B.B.B.B.B.B.B.B.B.B.B.B.B.B.C.x.g d n c #X9X9X9X9X9X9XE.9X9X9X9X9X8Xi.B.B.B.B.B.B.B.B.B.B.B.B.B.B.B.B.B.B.B.",
"B.B.B.B.B.B.B.B.B.B.B.B.B.B.B.B.B.B.B.B.B.B.B.B.C.7.8 7 a r 8X9X9X9X9X9X8X4 9X9X9X9X9X;X8.B.B.B.B.B.B.B.B.B.B.B.B.B.B.B.B.B.B.B.",
"B.B.B.B.B.B.B.B.B.B.B.B.B.B.B.B.B.B.B.B.B.B.B.B.B.6.@ u a y ;X9X9X9X9X9X;X  9X9X9X9X9XE.7.B.B.B.B.B.B.B.B.B.B.B.B.B.B.B.B.B.B.B.",
"B.B.B.B.B.B.B.B.B.B.B.B.B.B.B.B.B.B.B.B.B.B.B.B.B.r.$ u m r P.9X9X9X9X9X9X] O.O.O._.9XoXm.B.B.B.B.B.B.B.B.B.B.B.B.B.B.B.B.B.B.B.",
"B.B.B.B.B.B.B.B.B.B.B.B.B.B.B.B.B.B.B.B.B.B.B.B.B.r.z.. B n M ).9X9X9X8X[ W E R ,._ E.i.B.B.B.B.B.B.B.B.B.B.B.B.B.B.B.B.B.B.B.B.",
"B.B.B.B.B.B.B.B.B.B.B.B.B.B.B.B.B.B.B.B.B.B.B.B.B.M.r.6 g D H c / | ( f Y Y Y H H x ( n.B.B.B.B.B.B.B.B.B.B.B.B.B.B.B.B.B.B.B.B.",
"B.B.B.B.B.B.B.B.B.B.B.B.B.B.B.B.B.B.B.B.B.B.B.B.B.C.O c F G H H H Y P r a d v C d 6 ( B.B.B.B.B.B.B.B.B.B.B.B.B.B.B.B.B.B.B.B.B.",
"B.B.B.B.B.B.B.B.B.B.B.B.B.B.B.B.B.B.B.B.B.B.B.B.B.N.a X h B H U M p ^ +.&. .} q  .X., B.B.B.B.B.B.B.B.B.B.B.B.B.B.B.B.B.B.B.B.B.",
"B.B.B.B.B.B.B.B.B.B.B.B.B.B.B.B.B.B.B.B.B.B.B.B.B.B.< v V B G 7 } -.-.-.%.%.`.%.`.`.`.i.B.B.B.B.B.B.B.B.B.B.B.B.B.B.B.B.B.B.B.B.",
"B.B.B.B.B.B.B.B.B.B.B.B.B.B.B.B.B.B.B.B.B.B.B.B.B.B.x.- 7 B 7 } -.-.-.-.`.`.%.`.`.`.`.G.N.B.B.B.B.B.B.B.B.B.B.B.B.B.B.B.B.B.B.B.",
"B.B.B.B.B.B.B.B.B.B.B.B.B.B.B.B.B.B.B.B.B.B.B.B.B.B.B.z.C B 8 &.-.-.-.-.%.-.-.`.-.-.%.'.y.B.B.B.B.B.B.B.B.B.B.B.B.B.B.B.B.B.B.B.",
"B.B.B.B.B.B.B.B.B.B.B.B.B.B.B.B.B.B.B.B.B.B.B.B.B.B.B.z.B g w *.-.-.-.-.`.-.-.-.-.-.`.|.q.B.B.B.B.B.B.B.B.B.B.B.B.B.B.B.B.B.B.B.",
"B.B.B.B.B.B.B.B.B.B.B.B.B.B.B.B.B.B.B.B.B.B.B.B.B.B.B.y.N a } *.-.-.-.-.-.-.-.-.`.-.%.`.] V.B.B.B.B.B.B.B.B.B.B.B.B.B.B.B.B.B.B.",
"B.B.B.B.B.B.B.B.B.B.B.B.B.B.B.B.B.B.B.B.B.B.B.B.B.B.B.t.G 7 } *.-.-.-.-.-.-.-.-.*.*.`.%.[ m.B.B.B.B.B.B.B.B.B.B.B.B.B.B.B.B.B.B.",
"B.B.B.B.B.B.B.B.B.B.B.B.B.B.B.B.B.B.B.B.B.B.B.B.B.B.B.u.N b 9 %.-.-.-.-.-.-.} 0 0 0 3 - c.B.B.B.B.B.B.B.B.B.B.B.B.B.B.B.B.B.B.B.",
"B.B.B.B.B.B.B.B.B.B.B.B.B.B.B.B.B.B.B.B.B.B.B.B.B.B.Z., N B 8 &.-.-.-.-.-.-.`.`.&.0 C.B.B.B.B.B.B.B.B.B.B.B.B.B.B.B.B.B.B.B.B.B.",
"B.B.B.B.B.B.B.B.B.B.B.B.B.B.B.B.B.B.B.B.B.B.B.B.B.V.j.8 V B v 9 %.-.-.`.`.%.-. ., v.B.B.B.B.B.B.B.B.B.B.B.B.B.B.B.B.B.B.B.B.B.B.",
"B.B.B.B.B.B.B.B.B.B.B.B.B.B.B.B.B.B.B.B.B.B.B.B.V.a.%XK.s B H x w %.-.%.-.%.`.0 Y.i.B.B.B.B.B.B.B.B.B.B.B.B.B.B.B.B.B.B.B.B.B.B.",
"B.B.B.B.B.B.B.B.B.B.B.B.B.B.B.B.B.B.B.B.B.B.B.B.V.S.].].W.w K H K s Q ! q ! p i ~.l.B.B.B.B.B.B.B.B.B.B.B.B.B.B.B.B.B.B.B.B.B.B.",
"B.B.B.B.B.B.B.B.B.B.B.B.B.B.B.B.B.B.B.B.B.B.B.B.z.[.].]..X9XQ.j U Y Y H Y Y H k ;X#Xn.B.B.B.B.B.B.B.B.B.B.B.B.B.B.B.B.B.B.B.B.B.",
"B.B.B.B.B.B.B.B.B.B.B.B.B.B.B.B.B.B.B.B.B.C.m.B.u.J.].].#X9X9X0X[ c H H H H l H.9X9Xa.B.B.B.B.B.B.B.B.B.B.B.B.B.B.B.B.B.B.B.B.B.",
"B.B.B.B.B.B.B.B.B.B.B.B.B.B.B.B.B.B.B.y.g.J.K.S.F.J.W.].:X9X9X/.5XP.K H H H O.H.9X9Xk.B.B.B.B.B.B.B.B.B.B.B.B.B.B.B.B.B.B.B.B.B.",
"B.B.B.B.B.B.B.B.B.B.B.B.B.B.B.B.B.n.g.].].].].]._.G.e [.5X9X9XE.9X9X( H H M 4X%X@X9X5 f.v.V.B.B.B.B.B.B.B.B.B.B.B.B.B.B.B.B.B.B.",
"B.B.B.B.B.B.B.B.B.B.B.B.B.B.B.B.v.J.$X].].].:X9X9XH.].F.9X9X-X;X9X9X<Xl H | 9X5XE._.H.8X<Xh.v.B.B.B.B.B.B.B.B.B.B.B.B.B.B.B.B.B.",
"B.B.B.B.B.B.B.B.B.B.B.B.B.B.B.x.Y..X].].].:X9X9X9X).,X$XF.8X/.9X9X9X9XQ.r -X9X9XF._.2X#X9X9X@Xb.B.B.B.B.B.B.B.B.B.B.B.B.B.B.B.B.",
"B.B.B.B.B.B.B.B.B.B.B.B.B.B.m.J.].].].].%X9X9X9X9X;X-X9X,XH.@X9X9X9X9X9X#X9X9X9X8X9X9X/.9X9X9X4Xf.B.B.B.B.B.B.B.B.B.B.B.B.B.B.B.",
"B.B.B.B.B.B.B.B.B.B.B.B.B.B.h.$X].].].].8X9X9X9X9X5X@X9X9X9X9X9X9X9X9X9X9X9X9X9X9X9X9X~.9X9X9X9X1Xb.B.B.B.B.B.B.B.B.B.B.B.B.B.B.",
"B.B.B.B.B.B.B.B.B.B.B.B.B.u.$X[.].].].:X9X9X9X9X9X4X@X9X9X9X9X9X9X9X9X9X9X9X9X9X9X9X=X] I.I.P.#X9XoXA.B.B.B.B.B.B.B.B.B.B.B.B.B.",
"B.B.B.B.B.B.B.B.B.B.B.B.Z.T.[.[.].].].8X9X9X9X9X9X;X-X9X9X9X9X9X9X9X9X9X9X9X9X9X8X..@.E T T R >.L.0XS.B.B.B.B.B.B.B.B.B.B.B.B.B.",
"B.B.B.B.B.B.B.B.B.B.B.C.t._.9 / ^ ] K.9X9X9X9X9X9X#X4X9X9X9X9X9X9X9X9X9X9X9X9X9X( H H H H H H H <.O.H.8.B.B.B.B.B.B.B.B.B.B.B.B.",
"B.B.B.B.B.B.B.B.B.B.B.B.C.= C B B Z b Q P.9X9X9X9X/.9X9X9X9X9X9X9X9X9X9X9X9X9XQ.I H H H Y Y Y Y Y ,.=.* V.B.B.B.B.B.B.B.B.B.B.B.",
"B.B.B.B.B.B.B.B.B.B.B.B.C.8 B B D H Y J N p [.9X9X/.9X9X9X9X9X9X9X9X9X9X9X9X0Xz H c H H Y Y Y J Y Y R 4.s.V.B.B.B.B.B.B.B.B.B.B.",
"B.B.B.B.B.B.B.B.B.B.B.B.8.Z B B P H H Y H P n L.9X~.9X9X9X9X9X9X9X9X9X9X9X9XU.Y U r Y g Y Y D i Y H Y Y 3.q.B.B.B.B.B.B.B.B.B.B.",
"B.B.B.B.B.B.B.B.B.B.B.B.< B B Z H Y Y S n Y Y s H.>X9X9X9X9X9X9X9X9X9X9X9X$XA Y A t Y t P I u 7 P Y Y Y T 2.c.B.B.B.B.B.B.B.B.B.",
"B.B.B.B.B.B.B.B.B.B.V.x.v B B D Y H Y ,.3.o.z [ 8X9X9X9X9X9X9X9X9X9X9X9X9Xk U D Q [ N C t F V u Z Y H H H T 3 B.B.B.B.B.B.B.B.B.",
"B.B.B.B.B.B.B.B.B.B.B.9.Z B B I Y Y Y Y Y H <.=.Q.8X9X9X9X9X9X9X9X9X9X9X9X` f ! R.~.E.R.E.' ` 0 g F H H Y Y :.c.B.B.B.B.B.B.B.B.",
"B.B.B.B.B.B.B.B.B.B.B.- N B B U Y H Y Y Y Y H Y <.+._.8X9X9X0X5X9X9X9X9X9X0XY.OXXXXX}.XX(.(.^.+X) N H H Y Y T q.B.B.B.B.B.B.B.B.",
"B.B.B.B.B.B.B.B.B.B.B., B B B H Y Y Y Y Y Y Y Y H T <.o.o._ $.$.o.I.-X9X9X6X^.6X6X6X6X6X6X6X6X6X~ C J H Y Y Y ; B.B.B.B.B.B.B.B.",
"B.B.B.B.B.B.B.B.B.B.B.- N B B I H Y Y Y H Y Y Y Y Y H H Y Y Y Y H R @.}.9X4X}.+XXX(.(.(.XX(.(.(.E.{ Z Y Y Y Y - B.B.B.B.B.B.B.B.",
"B.B.B.B.B.B.B.B.B.B.B.; Z N B N U Y Y Y Y Y H Y Y Y Y Y Y Y Y Y Y S M c !.4X*X+XXX~.6X6X&XOX^.3X(.2Xa L Y Y P 0.B.B.B.B.B.B.B.B.",
"B.B.B.B.B.B.B.B.B.B.B.y.B B B B N F U U Y H H H Y H Y Y Y Y Y Y H T ;.j l }.+X+X6XXX6X6XOX6X2X=X^.6XQ B Z V a n.B.B.B.B.B.B.B.B.",
"B.B.B.B.B.B.B.B.B.B.B.B.> N B B B B B G D F P P P U Y Y Y Y Y Y M h I 2.j 3 *X+X6XXX6X6XOX6X2X=X~.6X^ B B v u.B.B.B.B.B.B.B.B.B.",
"B.B.B.B.B.B.B.B.B.B.B.B.m., m B B B B B B B B B V B N D F D D P Y :.p U _ & +X+X6X(.7X6XOX6X2X*X~.6X^ h < y.B.B.B.B.B.B.B.B.B.B.",
"B.B.B.B.B.B.B.B.B.B.B.B.B.B.c.: 8 7 v b m m b d 7 o g B B B B B L H 1.f A y.*X+X6X(.7X6XXX6X2X*X~.6Xw.x.B.B.B.B.B.B.B.B.B.B.B.B.",
"B.B.B.B.B.B.B.B.B.B.B.B.B.B.B.B.B.C.n.z.r.y.z.n.B.B.z.; - : y.8.8 D P > 0.n.+X+X6X(.7X7XOX6X2X*X^.&Xv.V.B.B.B.B.B.B.B.B.B.B.B.B.",
"B.B.B.B.B.B.B.B.B.B.B.B.B.B.B.B.B.B.B.B.B.B.B.B.B.B.B.B.B.B.B.B.M.% & n.B.n.}.+.;./ #.$./ ;.2..XD.p.B.V.B.B.B.B.B.B.B.B.B.B.B.B."
};
