/* XPM */
static char *cdb5da6d24cb48d3d0f57bb5528bfa80q8sMeKTFk4ILGnqn[] = {
/* columns rows colors chars-per-pixel */
"64 64 232 2 ",
"   c #2F3B14",
".  c #373737",
"X  c #4E3E15",
"o  c #08581B",
"O  c #1B4D18",
"+  c #3A5D1A",
"@  c #2A501D",
"#  c #09781E",
"$  c #187A1D",
"%  c #28671C",
"&  c #3A651B",
"*  c #2F761B",
"=  c #235828",
"-  c #037A22",
";  c #197927",
":  c #0C6B27",
">  c #276822",
",  c #366821",
"<  c #257427",
"1  c #2A7833",
"2  c #367334",
"3  c #554216",
"4  c #42551A",
"5  c #6D5C18",
"6  c #755B1D",
"7  c #4A661D",
"8  c #54681E",
"9  c #4E721C",
"0  c #69661B",
"q  c #796718",
"w  c #575925",
"e  c #665523",
"r  c #6E5639",
"t  c #72592D",
"y  c #5B6821",
"u  c #756C21",
"i  c #7B6825",
"p  c #756A34",
"a  c #397A47",
"s  c #386E40",
"d  c #575856",
"f  c #6A5942",
"g  c #497955",
"h  c #537F5D",
"j  c #50704A",
"k  c #766D50",
"l  c #746E68",
"z  c #737370",
"x  c #84671F",
"c  c #877718",
"v  c #94761D",
"b  c #8D6C23",
"n  c #876822",
"m  c #8A7122",
"M  c #937223",
"N  c #9D7924",
"B  c #977924",
"V  c #826A36",
"C  c #877C3A",
"Z  c #A27C25",
"A  c #85734E",
"S  c #867756",
"D  c #947756",
"F  c #836B49",
"G  c #817C6F",
"H  c #13861D",
"J  c #15901F",
"K  c #068924",
"L  c #188926",
"P  c #089927",
"I  c #15932D",
"U  c #169825",
"Y  c #1C8532",
"T  c #1A9B35",
"R  c #268928",
"E  c #2A8336",
"W  c #328B2E",
"Q  c #0BA626",
"!  c #14A628",
"~  c #0DBD2B",
"^  c #08B926",
"/  c #18A634",
"(  c #12BA35",
")  c #11B02A",
"_  c #4F813B",
"`  c #708135",
"'  c #04CC29",
"]  c #0BCB2B",
"[  c #0DC52A",
"{  c #04D42A",
"}  c #09D42A",
"|  c #00DF2A",
" . c #0FC832",
".. c #0BD232",
"X. c #12C42C",
"o. c #348646",
"O. c #5C8241",
"+. c #6A8349",
"@. c #7C8F54",
"#. c #64826B",
"$. c #768E7B",
"%. c #8A8219",
"&. c #98861A",
"*. c #A28C1B",
"=. c #A6831D",
"-. c #A8951A",
";. c #B4971D",
":. c #B8A41B",
">. c #97892A",
",. c #958934",
"<. c #908929",
"1. c #AC8527",
"2. c #A88526",
"3. c #B38A27",
"4. c #B48A29",
"5. c #B18727",
"6. c #AB9424",
"7. c #A4A139",
"8. c #C49F1D",
"9. c #C4A81B",
"0. c #CDB51C",
"q. c #D3BA1D",
"w. c #D6BA1C",
"e. c #C4962B",
"r. c #CC9B2C",
"t. c #C59A28",
"y. c #D09E2D",
"u. c #D3A12D",
"i. c #DBAC29",
"p. c #D7A92A",
"a. c #DEB128",
"s. c #D8B224",
"d. c #CEA925",
"f. c #E9BE25",
"g. c #E1B629",
"h. c #E3B826",
"j. c #E0AF2A",
"k. c #E6C91E",
"l. c #FED81F",
"z. c #F8D51F",
"x. c #EFD21F",
"c. c #FEE21F",
"v. c #EDC524",
"b. c #EAC822",
"n. c #F3CC22",
"m. c #F5D521",
"M. c #FAD521",
"N. c #FED920",
"B. c #FCDA2C",
"V. c #FBDB36",
"C. c #E0CA3E",
"Z. c #FEE020",
"A. c #8D8248",
"S. c #98924B",
"D. c #87815C",
"F. c #9E9A5B",
"G. c #86975C",
"H. c #A0985E",
"J. c #B6AE56",
"K. c #8C8564",
"L. c #969863",
"P. c #8D8776",
"I. c #9E8961",
"U. c #AD8862",
"Y. c #BB9C71",
"T. c #BA9369",
"R. c #AEA372",
"E. c #C39F72",
"W. c #C0996D",
"Q. c #CDAA7A",
"!. c #CAA576",
"~. c #D3AF7D",
"^. c #D4B07E",
"/. c #C5BF76",
"(. c #CFBF4F",
"). c #FDDE42",
"_. c #ECD759",
"`. c #FCE35C",
"'. c #FEE351",
"]. c #FEE146",
"[. c #DBCF7A",
"{. c #D9CC71",
"}. c #EADA79",
"|. c #E9D86B",
" X c #FBE468",
".X c #F8E375",
"XX c #D5C451",
"oX c #7D9284",
"OX c #8D8D8C",
"+X c #8A8785",
"@X c #859285",
"#X c #969696",
"$X c #9A9A9A",
"%X c #999A93",
"&X c #959389",
"*X c #9CA69E",
"=X c #A4A49F",
"-X c #9DA7A0",
";X c #ABAAAA",
":X c #A7A6A4",
">X c #B1AEAB",
",X c #B7B6B5",
"<X c #B0B0AF",
"1X c #D6B486",
"2X c #C9AC86",
"3X c #C4BFBC",
"4X c #E1C295",
"5X c #BEBFC0",
"6X c #C4C3C3",
"7X c #CBCBCC",
"8X c #C7C7C7",
"9X c #D3CCCA",
"0X c #CDCED1",
"qX c #D4D4D5",
"wX c #DDD6D4",
"eX c #DBDBDB",
"rX c #DBD7D6",
"tX c #D0D2CF",
"yX c #E2DCDA",
"uX c #E0D8D6",
"iX c #E4E0DE",
"pX c #DEDFE1",
"aX c #E4E4E4",
"sX c #EBEBEB",
"dX c #E9E6E4",
"fX c #F1EDEB",
"gX c #EFEFF1",
"hX c #EFF0F1",
"jX c #F4F3F3",
"kX c #FFFFFF",
"lX c #F9F8F7",
"zX c #F0F0EF",
/* pixels */
"| | | | | | | | | | | | | | | | | | | | | | | | | | | | | | | | | | | | | | | | | | | | | | | | | | | | | | | | | | | | | | | | ",
"| | | | | | | | | | | | | | | | | | | | | | | | | | | | | | | | | | | | | | | | | | | | | | | | | | | | | | | | | | | | | | | | ",
"| | | | | | | | | | | | | | | | | | | | | | | | | | | | | | | | | | | | | | | | | | | | | | | | | | | | | | | | | | | | | | | | ",
"| | | | | | | | | | | | | | | | | | | | | | | | | | | | | | | | | | | | | | | | | | | | | | | | | | | | | | | | | | | | | | | | ",
"| | | | | | | | | | | | | | | | | | | | | | | | | | | | | | | | | | | | | | | | | | | | | | | | | | | | | | | | | | | | | | | | ",
"| | | | | | | | | | | | | | | | | | | | | | | | | | | | | | | | | | | | | | | | | | | | | | | | | | | | | | | | | | | | | | | | ",
"| | | | | | | | | | | | | | | | | | | | | | | | | | | | | | | | | | | | | | | | | | | | | | | | | | | | | | | | | | | | | | | | ",
"| | | | | | | | | | | | | | | | | | | | | | | | | | | | { { ^ ^ ' | | | | | | | | | | | | | | | | | | | | | | | | | | | | | | | ",
"| | | | | | | | | | | | | | | | | | | | | | | | | ' K K o o P [ P P | | | | | | | | | | | | | | | | | | | | | | | | | | | | | | ",
"| | | | | | | | | | | | | | | | | | | | | | | | { # | P Q P o L L K Q | | | | | | | | | | | | | | | | | | | | | | | | | | | | | ",
"| | | | | | | | | | | | | | | | | | | | | | | | Q ^ Q   m s.N.N.z.w.%.; } | | | | | | | | | | | | | | | | | | | | | | | | | | | ",
"| | | | | | | | | | | | | | | | | | | | | | | | K = 1.x a.l.l.N.l.l.l.V.+.X.| | | | | | | | | | | | | | | | | | | | | | | | | | ",
"| | | | | | | | | | | | | | | | | | | | | | | { O r.r.N M.l.l.l.l.l.l.l.V.+.} | | | | | | | | | | | | | | | | | | | | | | | | | ",
"| | | | | | | | | | | | | | | | | | | | | | | ; 1.r.r.h.l.l.l.N.l.l.l.l.l. XW | | | | | | | | | | | | | | | | | | | | | | | | | ",
"| | | | | | | | | | | | | | | | | | | | | | ' q y.y.y.f.l.l.l.N.l.l.N.l.l.B.H.} | | | | | | | | | | | | | | | | | | | | | | | | ",
"| | | | | | | | | | | | | | | | | | | | | | U e.y.y.y.k.l.l.l.l.N.N.l.l.l.l.}.) | | | | | | | | | | | | | | | | | | | | | | | | ",
"| | | | | | | | | | | | | | | | | | | | | | $ y.y.y.r.v.N.N.N.M.l.l.l.l.l.l. XW | | | | | | | | | | | | | | | | | | | | | | | | ",
"| | | | | | | | | | | | | | | | | | | | | | % u.y.y.y.f.N.N.N.M.l.l.l.l.l.Z.].@.] | | | | | | | | | | | | | | | | | | | | | | | ",
"| | | | | | | | | | | | | | | | | | | | | | * u.y.y.y.g.N.k.-.-.w.l.z.l.0.-.:.`.E | | | | | | | | | | | | | | | | | | | | | | | ",
"| | | | | | | | | | | | | | | | | | | | | | J r.y.y.y.p.,.<XsXgX5XA.0.K.7XzXqXP.R | | | | | | | | | | | | | | | | | | | | | | | ",
"| | | | | | | | | | | | | | | | | | | | | | ^ 3.y.y.y.V sXkXkXkXkXzXl lXkXkXkXkX#.{ | | | | | | | | | | | | | | | | | | | | | | ",
"| | | | | | ! < J | | | | | | | | | | | | | { u y.y.4.,XkXsXkXkXkXkX;XaXkXkXkXqXpX( | | | | | | | | | | | | | [ , , ) | | | | | ",
"| | | ! 9 9 v a.z.& | | | | | | | | | | | | | % y.u.M sXkX. aXkXkXkXtX6XkXkXkXl qX) | | | | | | | | | | | | } q u.h.0 y * } | | ",
"| | ^ 2.l.l.&.t.l.x.! | | | | | | | | | | | ' L y.X N qXkXlXkXkXkXkX<X5X;XOX&XjX:X..| | | | | | | | | | | | % 6 *.-.e.h.v.* | | ",
"| ! + N v.N.k.3 c v + } | | | | | | | | | | # # x b v P.kXkXkXkXkXlXl J._.'.}.z E | | | | | | | | | | | | % y.m.s.5 g.l.9.0 L | ",
"U q.l.0.x b.q v.N.N.N.< | | | | | | | | | | K # X e.6 2.$XlXkXkXzXP.k.l.l.l.Z.p I | | | | | | | | | | | ~ N v.Z.z.x.&.&.2.a.w.R ",
"& z.l.l.0.3 a.N.z.B.l.` | | | | | | | | | | K '   u.4.y.w.>.H.F.6.x.b.h.g.e.e ,.Y | | | | | | | | | | | U e.s.9.l.l.S.Z b.l.x.<.",
"w x k.l.N.5 M.M._.<.l.S.} | | | | | | | | | ^ ' @ e.y.y.v.l.;.n t r r r r S 1X2Xj ( | | | | | | | | | | P r.N.&.(. Xk p.z.0.q 7.",
"% x 5 b.M.5 ,.L.<.m.N.F.} | | | | | | | | | { 9 s.&.y.y.h.i D W.!.~.!.!.~.~.~.~.1XK.; a ( | | | | | | | % r.M.N.q >.-.&.z.c :.O.",
"^ 3.6 n 6 5.m.:.0.N.l.}.W | | | | | | | | | Q ;.3 6.y.y.e U.~.1X~.~.^.~.~.~.~.~.1XY.1X1X1 | | | | | } > r.y.z.w.:.l.l.q.&.0._.U ",
"| % u.y.u.y.M.;.b.N.N.N.{.L | | | | | | | | ^ 3.Z e.y.1.F !.~.~.~.~.~.~.~.~.~.~.~.W.D 2XQ | | | | { , r.r.g.l.k.x.l.l.l.B..X2 | ",
"| ' 4 y.y.r.n.M.l.l.l.l.N.{.L | | | | | | | | H 0 6 r.6 T.~.~.~.~.^.~.1X~.~.~.~.~.f f 2 | | | | ] 7 r.r.a.l.z.l.l.l.l.V.[.2 } | ",
"| | } 4 y.y.a.l.l.l.l.l.l.l.{.R | | | | | | | | { 0 y.t W.^.~.~.^.~.~.^.~.~.^.^.^.!.2XL | | | [ y y.y.g.l.N.l.l.l.N.B.4XJ | | | ",
"| | | [ q y.y.n.l.l.l.l.l.l.l.|.W { | | | | | | | 8 u.t W.^.^.~.~.^.^.~.^.^.^.^.f K.j [ | | U c y.y.h.N.l.N.l.l.l.l..X1 | | | | ",
"| | | | ! 1.y.y.z.l.l.l.l.l.l.l._.9 } | | | | | | & y.n U.~.^.~.^.^.~.^.~.~.^.~.1 { { | | ; 1.y.y.f.l.l.l.l.N.N.l.`.O.} | | | | ",
"| | | | | $ e.y.u.z.l.l.l.l.l.l.N.'.@.( | | | | | & y.r.e Q.^.^.^.~.~.~.1X~.!.1 | | | ] + e.y.y.v.l.l.N.N.z.N.N.V.L. .| | | | | ",
"| | | | | | & y.y.i.l.l.N.l.l.l.N.N.B.J.U | | | | & u.u.5.r 1X^.~.~.~.~.~.I.; | } ) / 0 y.u.u.n.l.l.N.l.N.l.l.Z.{.) | | | | | | ",
"| | | | | | ' 8 y.y.p.M.l.l.l.M.N.N.N.N.C.& = Q | 7 u.y.u.s.u A Y.Q.T.D A < | } 2 >Xl V r.u.n.l.l.l.l.l.N.l.Z.4XI | | | | | | | ",
"| | | | | | | [ i y.y.p.N.l.l.l.N.l.N.N.N.N.e :XL 4 i t p D S.A.w %.-.k..X2 ) : 9XwXuX3Xk k.z.l.l.l.N.l.l.N.}.E | | | | | | | | ",
"| | | | | | | | ! B y.y.i.z.l.l.l.N.N.N.N.N.S jX:Xz wXyXfXkXkXkX0XS x.N.`.G 6X8X%XwXuXiXlXP.k.l.l.l.l.N.l..X9 ..| | | | | | | | ",
"| | | | | | | | | U 2.y.y.i.l.l.l.N.N.l.N.w.<XkXjX+X3XuXlXkXkXsX$XjXC z.'.P.OXkXOXuXsXkXkXkXP.k.l.l.l.l. Xj } | | | | | | | | | ",
"| | | | | | | | | | H 1.u.r.i.l.l.N.l.N.l.C lXkXkXsXz fXkXkXkX,XeXkXtX6.].k 8XkX-XaXkXkXkXkXlXD.z.l.l. X+.] | | | | | | | | | | ",
"| | | | | | | | | | | $ 3.y.y.i.l.l.l.l.q.,XkXkXkXkX,X6XkXkXkX#XlXkXkX;X>.6X#XjXeX,XkXkXkXkXkXhX,.l.`.@.] | | | | | | | | | | | ",
"| | | | | | | | | | | | H 3.y.y.i.l.l.z.K.kXkXkXkXkXlXz $X#X#X#XkXkXkXkX8XkXgX+X,X:XkXkXkXkXkXkX,XXXL.X.| | | | | | | | | | | | ",
"| | | | | | | | | | | | | H 2.y.y.a.l.>.sXkXkXkXkXkXkX:XlXkXkXkXkXkXkXkXkXkXkX$X7XlXkXkXkXkXkXkXkXj ~ | | | | | | | | | | | | | ",
"| | | | | | | | | | | | | | J 2.y.u.B 8XkXkXkXkXkXkXkX7XrXkXkXkXkXkXkXkXkXkXkXjX#XkXkXkXkXkXkXkXkXh | | | | | | | | | | | | | | ",
"| | | | | | | | | | | | | | | ; M b ;XkXkXkXkXkXkXkXkXlXjXkXkXkXkXkXkXkXkXkXkXkX#XkXkXkXkXkXkXkXtXT | | | | | | | | | | | | | | ",
"| | | | | | | | | | | | | | | P d >XrXyXkXkXkXkXkXkXkXkXkXkXkXkXkXkXkXkXkXkXkXkX,X0XkXkXkXkXkX,XT | | | | | | | | | | | | | | | ",
"| | | | | | | | | | | | | | | | E 3XwXwXuXlXkXkXkXkXkXkXkXkXkXkXkXkXkXkXkXkXkXkXhX$XkXkXkXeX#.( | | | | | | | | | | | | | | | | ",
"| | | | | | | | | | | | | | | | | / #.9XrXwXfXlXkXkXkXkXkXkXkXkXkXkXkXkXkXkXkXkXjXOXpX-Xa ) | | | | | | | | | | | | | | | | | | ",
"| | | | | | | | | | | | | | | | | | } / a @X;X3X7XkXkXkXkXkXkXkXkXkXkXkXkXkXkXkXaXd I ..| | | | | | | | | | | | | | | | | | | | ",
"| | | | | | | | | | | | | | | | | | | | | L >X>XaXkXkXkXkXkXkXkXkXkXkXkXkXkXkXkXkXlX@X( | | | | | | | | | | | | | | | | | | | | ",
"| | | | | | | | | | | | | | | | | | | | ] @XwXdXkXkXkXkXkXkXkXkXkXkXkXkXkXkXkXkXkXkXkX*X( | | | | | | | | | | | | | | | | | | | ",
"| | | | | | | | | | | | | | | | | | | | g uXrXlXkXkXkXkXkXkXkXkXkXkXkXkXkXkXkXkXkXkXkXkXoX..| | | | | | | | | | | | | | | | | | ",
"| | | | | | | | | | | | | | | | | | | E wXwXdXkXkXkXkXkXkXkXkXkXkXkXkXkXkXkXkXkXkXkXkXkXkXg | | | | | | | | | | | | | | | | | | ",
"| | | | | | | | | | | | | | | | | | T 3XwXuXlXkXkXkXkXkXkXkXkXkXkXkXkXkXkXkXkXkXkXkXkXkXkXdX/ | | | | | | | | | | | | | | | | | ",
"| | | | | | | | | | | | | | | | | [ %XwXwXuXkXkXkXkXkXkXkXkXkXkXkXkXkXkXkXkXkXkXkXkXkXkXkXkX$.} | | | | | | | | | | | | | | | | ",
"| | | | | | | | | | | | | | | | | g uXwXwXdXkXkXkXkXkXkXkXkXkXkXkXkXkXkXkXkXkXkXkXkXkXkXkXkXsX/ | | | | | | | | | | | | | | | | ",
"| | | | | | | | | | | | | | | | I 9XwXwXwXjXkXkXkXkXkXkXkXkXkXkXkXkXkXkXkXkXkXkXkXkXkXkXkXkXkXh | | | | | | | | | | | | | | | | ",
"| | | | | | | | | | | | | | | | z uXwXwXwXlXkXkXkXkXkXkXkXkXkXkXkXkXkXkXkXkXkXkXkXkXkXkXkXkXkX<X..| | | | | | | | | | | | | | | ",
"| | | | | | | | | | | | | | | I 9XwXwXwXwXkXkXkXkXkXkXkXkXkXkXkXkXkXkXkXkXkXkXkXkXkXkXkXkXkXkXsX/ | | | | | | | | | | | | | | | ",
"| | | | | | | | | | | | | | | j uXwXwXwXrXkXkXkXkXkXkXkXjXaXeX0X8X5X6X8XqXpXsXkXkXkXkXkXkXkXkXkXo.| | | | | | | | | | | | | | | ",
"| | | | | | | | | | | | | | } #XuXwXwXuXyXkXkXqX:XP.S V b M 1.;.8.8.9.;.v =.b V S P.;XaXkXkXkXkXa | | | | | | | | | | | | | | | ",
"| | | | | | | | | | | | | | ) 8XyXyXyXyX:Xl V N e.a.v.m.z.Z.Z.Z.Z.Z.c.%.q c.Z.N.m.n.d.M F OXjXkXo.| | | | | | | | | | | | | | | "
};
