/* XPM */
static char *_14e188adea94d41d35353ba14cfe75dw7sRfrRZbGUr2w0p[] = {
/* columns rows colors chars-per-pixel */
"64 64 251 2 ",
"   c #000000",
".  c #000B05",
"X  c #020C09",
"o  c #0B0D0C",
"O  c #080000",
"+  c #1C0E08",
"@  c #001205",
"#  c #01130C",
"$  c #05180A",
"%  c #17140C",
"&  c #0D0F10",
"*  c #081A11",
"=  c #131313",
"-  c #181B16",
";  c #1E0B13",
":  c #241A18",
">  c #351013",
",  c #0C2614",
"<  c #23271A",
"1  c #352814",
"2  c #303715",
"3  c #381626",
"4  c #193728",
"5  c #383324",
"6  c #2E2F26",
"7  c #570100",
"8  c #471211",
"9  c #670501",
"0  c #780C1A",
"q  c #4D3315",
"w  c #530E2E",
"e  c #6E1431",
"r  c #452D23",
"t  c #453726",
"y  c #5A3D27",
"u  c #523237",
"i  c #733137",
"p  c #004F10",
"a  c #044A28",
"s  c #36423A",
"d  c #3D4528",
"f  c #016F2E",
"g  c #4B451A",
"h  c #70531D",
"j  c #577218",
"k  c #667317",
"l  c #484726",
"z  c #564727",
"x  c #5B5C27",
"c  c #594B36",
"v  c #655829",
"b  c #684837",
"n  c #745B36",
"m  c #6C5235",
"M  c #776935",
"N  c #706D32",
"B  c #7B174B",
"V  c #56355C",
"C  c #71314D",
"Z  c #743D65",
"A  c #005054",
"S  c #2B4B4E",
"D  c #036A50",
"F  c #275F6D",
"G  c #007170",
"H  c #2D6472",
"J  c #2B614B",
"K  c #575857",
"L  c #504F45",
"P  c #7A5545",
"I  c #734950",
"U  c #7A6949",
"Y  c #504B6B",
"T  c #7B4864",
"R  c #6E576B",
"E  c #506F70",
"W  c #777777",
"Q  c #726A6B",
"!  c #8D1531",
"~  c #8F2631",
"^  c #884638",
"/  c #925D38",
"(  c #846C35",
")  c #87743A",
"_  c #97703E",
"`  c #931851",
"'  c #883658",
"]  c #902E54",
"[  c #AB3053",
"{  c #A51C69",
"}  c #992465",
"|  c #993967",
" . c #983D7C",
".. c #A62668",
"X. c #B5286C",
"o. c #A63968",
"O. c #B3396C",
"+. c #A93676",
"@. c #B83777",
"#. c #B62B76",
"$. c #961567",
"%. c #CA2A7B",
"&. c #C5357D",
"*. c #D63476",
"=. c #DA1A74",
"-. c #84464E",
";. c #8A584C",
":. c #8B4653",
">. c #875359",
",. c #955257",
"<. c #A2555C",
"1. c #AF4856",
"2. c #866746",
"3. c #957954",
"4. c #8F714C",
"5. c #A4775A",
"6. c #A87047",
"7. c #984569",
"8. c #905170",
"9. c #A84A78",
"0. c #B5487B",
"q. c #B9577B",
"w. c #AF4F6C",
"e. c #8D6C6C",
"r. c #AC6A74",
"t. c #C2457F",
"y. c #749418",
"u. c #6C8778",
"i. c #858126",
"p. c #9A8458",
"a. c #9A8D45",
"s. c #AC8C54",
"d. c #B19766",
"f. c #AF8D6C",
"g. c #BAA46C",
"h. c #C89956",
"j. c #C6AA6B",
"k. c #C49868",
"l. c #E4C37C",
"z. c #33768B",
"x. c #0F7A85",
"c. c #5A6C89",
"v. c #B43A81",
"b. c #DD1C90",
"n. c #CA2D85",
"m. c #D72D88",
"M. c #CD3483",
"N. c #C93A87",
"B. c #D93889",
"V. c #DC3C98",
"C. c #E4298A",
"Z. c #E32C91",
"A. c #ED2F96",
"S. c #E53394",
"D. c #E93795",
"F. c #F63A9A",
"G. c #ED308B",
"H. c #FB3AA6",
"J. c #FF3CB0",
"K. c #99598C",
"L. c #B94E81",
"P. c #B95885",
"I. c #A95783",
"U. c #9D7886",
"Y. c #956B83",
"T. c #BA6D9A",
"R. c #B16F90",
"E. c #BF7EA7",
"W. c #8878A6",
"Q. c #C84886",
"!. c #D6468B",
"~. c #CA5389",
"^. c #D4528E",
"/. c #DB4A94",
"(. c #CC5891",
"). c #D85696",
"_. c #E2478C",
"`. c #E74996",
"'. c #F24B9B",
"]. c #FA4999",
"[. c #EC549D",
"{. c #EC5A9E",
"}. c #E45798",
"|. c #F6559D",
" X c #C8789B",
".X c #D16895",
"XX c #E4699C",
"oX c #E946A5",
"OX c #FD4CA3",
"+X c #FE4BAA",
"@X c #FB45A7",
"#X c #EE5BA1",
"$X c #EB58A7",
"%X c #FC54A4",
"&X c #F25CA4",
"*X c #FF55AD",
"=X c #F55EAA",
"-X c #FD5DAB",
";X c #F558A6",
":X c #FE5CB3",
">X c #FD59B6",
",X c #FF4DB2",
"<X c #DC68A8",
"1X c #C67CA7",
"2X c #D477A3",
"3X c #EC68A6",
"4X c #F362A6",
"5X c #F562AA",
"6X c #FC62AC",
"7X c #F766A9",
"8X c #EA69B5",
"9X c #FE63B2",
"0X c #FF62B9",
"qX c #FE6BBC",
"wX c #F868B5",
"eX c #FA79B6",
"rX c #EE76B0",
"tX c #CF5BA2",
"yX c #FF55C1",
"uX c #FF6AC5",
"iX c #FE7AC3",
"pX c #ED7EC3",
"aX c #739783",
"sX c #7AAE93",
"dX c #8E908E",
"fX c #B4879A",
"gX c #B98FB0",
"hX c #89A597",
"jX c #CE8FAF",
"kX c #EF86B5",
"lX c #FD85B9",
"zX c #F689BA",
"xX c #F494BD",
"cX c #E590B8",
"vX c #CFA5B7",
"bX c #DB9B9B",
"nX c #E9C981",
"mX c #FD89C5",
"MX c #FD9ACC",
"NX c #FA96C4",
"BX c #FF98D2",
"VX c #F589D4",
"CX c #FEA6D7",
"ZX c #FCB6D7",
"AX c #EDADD2",
"SX c #FF9BE0",
"DX c #FFA8E7",
"FX c #FFB8E7",
"GX c #DFA9C5",
"HX c #FFCBF6",
"JX c #FFD2FF",
/* pixels */
"                                                                                                                                ",
"                                                                                                                                ",
"                                                                                                                                ",
"                                                                                                                                ",
"                                                                                                                                ",
"                                                                                                                                ",
"                                                                                                                                ",
"                                                                                                                                ",
"                                                                                                                                ",
"                                                              . # # X . .                                                       ",
"                                                        * 6 l K e.f.s.U d < - $ X                                               ",
"                                                . - s u r.f.U 2.d.p.s.r.<.2.3.3.r #                                             ",
"                                            . X ' NXFXFXR.K.R.r.r.K.T.<XwX/.+.I N 4.t X X O                                     ",
"                                        # 5 r P.HXFXZXgXA I.FXCXCXDXSXBX XmXmXS.C ;.f.3.; .                                     ",
"                                      . U 3.R.FXZXCXgXA 8.eXzXzXrXr.f.5.u.jXmXlXyXC.B U d.< O                                   ",
"                                O . 4 U 4.9.DXZXcXmXT.:.eXxXkXlXkXU i.( R W ~.MXY.z.H w <.q $                                   ",
"                                . % 5.3.8.VXvXxXeXlXlXNXxXkXzXcXNXkXtX8X{.7.2XNXR Y +.'.F.B.e                                   ",
"                                ; >.R.1XDXU ;.VX1X.XNXrX4X3X7X3X3XeXeXzXzXeXeXkXmXeXeX9X^.R +X} $                               ",
"                            @ ' CXFXFXDXf.k (.BXdXe.%X9X;X[.[.[.[.[.[.{.;X-X%X[.eXxXxXxX$Xa J yX` X                             ",
"                          @ | JXZXNXNXmX;.i iXNXR.W _.o.^.=X-X-X#X#X#X&X&X0.!.-X{.3X#X3XmX{., Q.F.:                             ",
"                        X > ZXZXeXXX1XkX<X3XxXeXQ.T 1.7 Q.wXI.T =X{.-X:X'.W dXB.-X'.[.[.6X~.[ ).+Xw $                           ",
"                        # I.HXkXc.x.S XXMXNX3X[.;XN.9 [ wX'.F Y -X:X~.L `./.hXdX`.&X{.9X^.7 O.uX@X` + @                         ",
"                        - lXFX.XS K.>. XlXrX[.[.6X4X` N.@X..A N.J.N.f a OX:X~.I B.6X&XwXe 0 $X6X`.%.i 2                         ",
"                        3 MXZXNX-X+XU.hX/.;X#X4X#X!.V.D.Z.n.V } { 4 a b.+XqX;XB.{.&X#X4Xo.Q.9X#X&X]...> ,                       ",
"                      . > CXcXXX;X-X!.K q.-X#X;XM.m.S.| :.<.1.( a.4.6.,.i } :XwX{.{.#X{.9X6X&X:X4X&X'.` $                       ",
"                      , w wXJ T :X4X;X#.).&X5X/.%.D.C x ) g l 5 1 y n m a.x ' 9X;X#X#X#X#X&X).w.}.=X#XF.> $                     ",
"                      6 4.M.D R :X{.{.6X|.4X6XM.Z.] x m O X         X & : h.n @.:X-X-X#X&X:X.Xk N.9X{.].X..                     ",
"                      5 M .XE s :X#X&X{.-X|.!.A.} M s.5                   : M 7.uX~.L.5X#X:Xr.h V.6X{.F.&.; X                   ",
"                    . 2.3.1XkXX.=X#X{.6X].H V A.b h.r X                   & 2 ;.,Xc.Y %X{.=X~.@.&X&X&XF.7.z $                   ",
"                    X M r.VX/.}.&X{.6X`.F G m...v 2.:                       5 g *.W.H ].&X{.-X-X{.&X}.S.:.g O O                 ",
"                    # 1 R.bXj 7.:X#X6X^.Y *.@X} z y o                       o v ;.7.T |.&X#X{.-X=X4X}.Z.| g *                   ",
"                    , ,.e.y.w.OX&X#X{.&X|.-X|.#.;.v X                     O O m p.9.>X#X{.6X:X}.).6X].A.' M %                   ",
"                    - ,.0.+.+X6X{.#X#X#X#X4X#Xn.;.l                         o 4.p. X:X#X=X^.K a 7.0XR +.o.v % O                 ",
"                    $ z /.uX#X#X#X#X#X|.&X-X*X} ( c o                       - ) Y.BX'.{.0X7.4 7.>XOXz.z.=.3 $ .                 ",
"                    # z -.>XwX;X{.{.4XwX8XI.&X{ 3.s.=                       c f.1XmX|.&X{.;XOX>X^.}.tXG &.` #                   ",
"                    . / M } /./.6X6X^.[ [ K $X;XI s.t                     o d.5.jXeXB.{.#X&X-XoXM 5.,X| M.&..                   ",
"                    # r a.~ R U.%X6X~.! 8 ] :X-X3X>.p.<                 = U d.;.BXvXW t.6X{.6X(.y.w.qXOXF.{ #                   ",
"                    . - 4.^ 7.aXQ.%X=X;XL.[.&X#X*XpXe.g.6 & X       X * 2.j.c E.GXhXR.'.&X{.:Xw.b oX&XB.F.3 @                   ",
"                    O * / n $.7.L.6X{.&X6X;X;X+Xs Y.<Xn nXp.c c 5 c d.g.3.I E.HXfXC `.9X{.{.&X}.oX&Xm.].e *                     ",
"                      X z h.C b.'.4X#X#X#X{.9XQ.f T VXfXP m r.s.d.l.g.T R.AXCXXX'.].6X{.{.&X{.=X&X%.C.| @ O                     ",
"                        - 6.v } %X6X0X=X{.#X:XK p D.6XFXgX9 P.gX>.>.8.FXHXeX`.[.;X&X#X#X&X{.6XqX/.C.X.h <                       ",
"                        $ 8 N ~ +X$X7.^.=X#X=X0.@.-X[.&XBX1.7 cXFXBXGXvX(.`.#X#X{.{.#X#X{.6X^.w.B.m.-.y #                       ",
"                          , 6.I b.5.x !.9X#X#X-X9X#X#X|.OX8X@._.7XwXI.W K O.9X#X-X6X{.#X4X7X~ 0 H.o.z + .                       ",
"                          * / 4.B M w.>X4X#X#X#X#X#X{.-XOX].qX&X-X`.:.+./.[.#X;Xq.}.:X{.9X] 9 M.n.n 1 #                         ",
"                            % 6.b $.A.B.}.{.&X#X#X#X;X).fXU.L.9XoXa.N `.qX&X#X:X;.l %X6X$X] } H.' q *                           ",
"                            * 8 s.-...m.m.M.!.;X9X-X/.Q aXe.Q.yX;.y.N.:X#X#X#X-XR p w.*X%.C.J.&.z %                             ",
"                              # > ( v ' m.m.[.#X0.|.;X0.%.F.6X&X^.N.:X#X#X{.=X%XS T }.&.C.S.+.y O #                             ",
"                                # 8 s.M C S.`._.G K.-X6X=X#X#X}./.*X&X#X&XwX6X7X!.%X_.G.N.b 1 - .                               ",
"                                  # > h.M } A.*.c.G *.:X7X7X6XP.aX.X%X-X8X[ [ /.S.A.Z.n.;.q * .                                 ",
"                                    . > ( ,.S.m.*.Z @.S._.`.'./.fXaX9.8X~ 9 ` S.m.} <.m q o                                     ",
"                                      . * 1 ..H.m.G.m.m.Z.Z.m.H.D.o.Q.`.` o.D.Z.-.M z 1 .                                       ",
"                                        . . + X.F.].D.&.O.' 7.] ..H.].&.S.S.F.I v y # .                                         ",
"                                              @ 3 e 3 : q M ) M c -.@.A.@XF.B % % #                                             ",
"                                                .   . . # = < r m 2 . 3 w : @                                                   ",
"                                                          . . X o o @ @   @                                                     ",
"                                                                                                                                ",
"                                                                                                                                ",
"                                                                                                                                ",
"                                                                                                                                ",
"                                                                                                                                ",
"                                                                                                                                ",
"                                                                                                                                ",
"                                                                                                                                ",
"                                                                                                                                "
};
