/* XPM */
static char *_e232720ac8d41bed503a051eb63ebad8w6WG4eDkXoDRauO[] = {
/* columns rows colors chars-per-pixel */
"64 64 239 2 ",
"   c #170E0C",
".  c #19110F",
"X  c #151216",
"o  c #1C1413",
"O  c #15161C",
"+  c #19161B",
"@  c #17181E",
"#  c #1C1A1D",
"$  c #25150E",
"%  c #331C0E",
"&  c #231614",
"*  c #281710",
"=  c #251916",
"-  c #2B1B15",
";  c #231C1C",
":  c #2B1D1A",
">  c #321D15",
",  c #3A1E14",
"<  c #321F19",
"1  c #2D211D",
"2  c #3D2416",
"3  c #34221B",
"4  c #3B251C",
"5  c #38291C",
"6  c #3D2A1D",
"7  c #171720",
"8  c #161B23",
"9  c #1C1C23",
"0  c #1D1F28",
"q  c #211E23",
"w  c #231F26",
"e  c #1E2027",
"r  c #1E2129",
"t  c #1F2434",
"y  c #222125",
"u  c #2B2223",
"i  c #23232B",
"p  c #2A262B",
"a  c #2A292F",
"s  c #342521",
"d  c #3B2622",
"f  c #3D2A22",
"g  c #372B2A",
"h  c #3D3229",
"j  c #272933",
"k  c #322E36",
"l  c #3B3234",
"z  c #4B1F1E",
"x  c #412616",
"c  c #442917",
"v  c #42261A",
"b  c #442B1A",
"n  c #492918",
"m  c #4A2E1C",
"M  c #47301F",
"N  c #4D311D",
"B  c #52341E",
"V  c #59351D",
"C  c #432C23",
"Z  c #442B25",
"A  c #4A2D22",
"S  c #532C22",
"D  c #453224",
"F  c #4C3323",
"G  c #44342B",
"H  c #4B342B",
"J  c #4A3A29",
"K  c #4C3B2C",
"L  c #523523",
"P  c #5B3627",
"I  c #543926",
"U  c #51362C",
"Y  c #543B2C",
"T  c #5A3D2C",
"R  c #473836",
"E  c #4C3B32",
"W  c #513731",
"Q  c #543C33",
"!  c #5A3E32",
"~  c #653727",
"^  c #6E3728",
"/  c #623D2C",
"(  c #643E30",
")  c #5A412C",
"_  c #4D4334",
"`  c #544234",
"'  c #5C4234",
"]  c #534937",
"[  c #55433A",
"{  c #5B443B",
"}  c #53493B",
"|  c #5C4A3D",
" . c #68442D",
".. c #79422D",
"X. c #785E2C",
"o. c #634434",
"O. c #6B4635",
"+. c #63463A",
"@. c #644A3C",
"#. c #6B4C3C",
"$. c #764A38",
"%. c #734D3B",
"&. c #6B523D",
"*. c #69553C",
"=. c #78543C",
"-. c #7C6833",
";. c #253543",
":. c #353542",
">. c #493F40",
",. c #344653",
"<. c #4D4549",
"1. c #5C4C43",
"2. c #5A4B4A",
"3. c #5A5245",
"4. c #5B5749",
"5. c #5A554B",
"6. c #5A5750",
"7. c #5C5851",
"8. c #644D42",
"9. c #6A4D43",
"0. c #684B44",
"q. c #724E41",
"w. c #645343",
"e. c #6C5343",
"r. c #6D5944",
"t. c #6B554A",
"y. c #6A574C",
"u. c #725444",
"i. c #7B5442",
"p. c #725A45",
"a. c #7C5B46",
"s. c #72564B",
"d. c #725B4C",
"f. c #6C5852",
"g. c #745C51",
"h. c #78634B",
"j. c #7F704E",
"k. c #7C6755",
"l. c #425B6E",
"z. c #7A6C64",
"x. c #883E27",
"c. c #8F4D31",
"v. c #884B37",
"b. c #B25634",
"n. c #92773A",
"m. c #855945",
"M. c #845D4A",
"N. c #8B5C52",
"B. c #86634B",
"V. c #916E45",
"C. c #8C6452",
"Z. c #876A57",
"A. c #936958",
"S. c #88745A",
"D. c #95725C",
"F. c #99755D",
"G. c #8B7564",
"H. c #8A746A",
"J. c #947463",
"K. c #987867",
"L. c #9C7A64",
"P. c #9C7C6B",
"I. c #A37967",
"U. c #A27C6B",
"Y. c #AB7D75",
"T. c #B17274",
"R. c #978438",
"E. c #8C8577",
"W. c #9C8778",
"Q. c #A4826C",
"!. c #A8866C",
"~. c #A58473",
"^. c #AA8573",
"/. c #AC8B74",
"(. c #A78A79",
"). c #AC8C7B",
"_. c #B48B7A",
"`. c #AE927D",
"'. c #B49278",
"]. c #B3927D",
"[. c #56758C",
"{. c #BD7E83",
"}. c #719AB6",
"|. c #999085",
" X c #A88C81",
".X c #BC8984",
"XX c #AE9281",
"oX c #A39788",
"OX c #B49583",
"+X c #B99585",
"@X c #BD9B84",
"#X c #B69C8A",
"$X c #BC9D8B",
"%X c #B99E91",
"&X c #BBA18D",
"*X c #BCA593",
"=X c #BCA799",
"-X c #BDAA9C",
";X c #C28A8B",
":X c #C29988",
">X c #C39C8B",
",X c #C89A93",
"<X c #D19899",
"1X c #C3A38C",
"2X c #C6A68E",
"3X c #C4A592",
"4X c #CAA593",
"5X c #C4A995",
"6X c #CBAA96",
"7X c #C7A699",
"8X c #C2AC9C",
"9X c #CCAD9A",
"0X c #D1A79B",
"qX c #D1AC9C",
"wX c #C6B09F",
"eX c #CDB19C",
"rX c #D1B29E",
"tX c #C3AEA0",
"yX c #CFAFA0",
"uX c #D3AFA2",
"iX c #C6B1A2",
"pX c #CBB3A4",
"aX c #D4B4A3",
"sX c #D5B9A5",
"dX c #DAB5AB",
"fX c #D8B8A8",
"gX c #DBBCAC",
"hX c #DEBDB2",
"jX c #DCC1AE",
"kX c #DEC2B3",
"lX c #E1C4B5",
"zX c #E2C8B7",
"xX c #E2C5BA",
"cX c #E4C9BC",
"vX c #87B9D4",
"bX c #90C4DF",
"nX c #A6D6E9",
"mX c #AFE9FF",
"MX c #E7CDC0",
/* pixels */
"j.% b 2 6 ) _ ) ) _ ) -.5 5 % h _ _ _ _ _ } _ } } } } } } } } } } } 3.| 3.3.3.} 3.3.3.3.6.4.5.4.3.5.5.5.5.5.5.5.5.6.5.6.6.6.6.6.",
"*.x b 2 2 6 2 2 6 2 6 c 5 5 5 % J J R _ _ _ _ _ ] _ _ _ _ _ } ] | | | | 3.3.4.4.3.3.3.3.3.5.5.5.5.5.5.5.5.5.5.7.7.6.6.6.6.6.6.6.",
"*.B N c c c m 2 2 2 2 2 2 c 2 6 b b x m c x b M M M J F J J D J J J _ J _ I F I F F H I D D D F J F D H J J J H H E E E E R R E ",
"j.I N c 2 c b 6 2 6 2 6 2 2 2 c m N m m M N M F I _ 6 D D h G J K G J ` J | Y Y ' T T T Y Y L Y Y I I ) P H H Y Y W U T Q J J E ",
"j.) B c x c m c c c 6 b 2 c 2 c m m N m L B F D D 6 5 5 6 K G h D J D H ` ` D ` ' ) T ) ' I I T Y Y I ! T U U ! ! T ! Q ! K Y ` ",
"S. .B c c c m c c m c c 6 c 6 c N N N L I J 5 6 h 6 6 h f f E K s G G J J Q h D J ` o.' o.Y P T ! P T T ' I ! ! T ` ! ' ! K Q ' ",
"R.*.V c c c b c 2 m c c 2 c c c N N B I M 6 5 6 J _ ) ] 3.5 *.*.J G G D f _ K G G _ ` ' ' ) Y ) ) o.T T ' T U ! ! ' ' ! ! Q ` { ",
"j.*.V c c c N c c m c m c c c B B I F 5 6 D F J D J J ` | ] K 3.w.K D J J Q K J E G K ` ' '  .' o.T ' o.) T ! ' ! ' ! +.Q Q [ [ ",
"j.-.V c c c N c c N c M c M c N I N b h M J D J J ` ] ] | w.Y ` d.w.E Q K | _ | _ G G E ` | ' @.@.o.o.o.o.! T { ' ' ' +.Q Q 1.1.",
"% ) V c c c m c c m c N m m m F I 6 6 M J F D D | w.r.w.| r.r.' k.h.@.` | | | d.G E G G E | { o.@.o.o.o.o.! ' o.' o.' [ { { 1.1.",
"2 % m c b c m b c N m M N N N M C 6 b J F J *.| @.r.| *.r.p.h.h.k.Z.r.r.d.d.d.y.| | | [ G E | #.@.O.o.@.T ! ' +.' @.@.@.0.Q 1.0.",
"n n c c c c N c c N N B N I J 6 f b J Y ' r.w.e.o.#.=.Z.D.P.L.E.K.E.S.G.G.S.k.S.S.G.k.d.t.| ` @.o.#.+.#.o.o.o.+.+.+.@.@.1.1.2.0.",
"c c V b c c N b m N B N F I M 6 b D I ) u.p.a.V.L./.6X9X5X5X&X*X5X&X1X4X5X#X`.OX#XOXXX(.S.d.{ { *.#.+.o.+.o.o.#.@.@.8.8.1.1.t.2.",
"b m V c b c B b c B N I F I F D C b I #.B.F.'.@X6XsXjXgXjXjXjXkXkXjXjXjXjXjXsXsXpXaX6XOX(.k.t.{ | +.#.#.#.+.#.@.#.9.9.8.1.R >.;.",
"m b V c b c M m M B m I ) D F M M I %.V.Q.1X6XrXrXsXjXjXkXkXzXzXkXjXkXjXjXjXjXsXsXaXrX3X#XQ.h.w.' @.e.#.#.o.+.#.9.e.9.0.>.>.>.l.",
"m b V b b b N c m B N I N M M M F o.D./.>X6XrXrXjXsXjXjXkXkXMXMXzXkXzXzXlXkXjXjXsXsXrX6X&X).Z.y.| | u.u.&.#.&.u.9.e.s.t.>.>.:.[.",
"m c B c c c B c c B m N L F b D I B.'.].6XeXrXrXfXjXkXkXkXcXcXMXcXxXlXlXlXlXkXjXjXsXrXrX3XOXG.t.8.{ s.e.#.#.e.u.e.e.t.t.2.<.:.[.",
"c m B m c c B c c L N F F A N I *.Q.'.1XeXeXrXrXjXkXkXkXkXcXcXzXcXlXcXMXMXcXkXjXfXsXrXrX4XOXK.8.| 1.@.u.#.e.e.u.u.e.f.f.2.<.:.}.",
"c n V c c c B 2 c L B F I F F I B.!.'.2X6XeXrXsXfXjXjXjXzXcXzXMXcXcXxXkXcXlXkXkXsXsXsXrX5X].K.w.! 1.8.u.#.#.u.p.u.e.s.f.2.<.:.}.",
"m m m c c c B 2 c B F L T I N T B.!.'.5X6XrXrXsXsXgXjXjXkXkXkXMXcXlXlXxXkXkXkXhXjXsXaX9X5XOXK.t.R { { s.#.9.i.a.s.t.s.f.2.<.:.vX",
"c c B m c c B c b N N B F m b I n.'.1X2X6XrXrXrXaXgXjXgXhXhXxXxXxXlXlXlXhXhXhXhXgXsXeX9X5XOXJ.9.[ E 1.u.u.9.u.u.s.0.s.f.y.<.;.bX",
"m m N N N c B c b N n L L N v L =.'.'.2X6XeXrXrXaXgXjXlXlXlXlXxXcXlXxXcXMXMXhXxXgXaXeX9X,X+XJ.` 0.{ E 9.u.#.9.i.0.f.s.f.6.<.j nX",
"m m N N M c B c b N m L I P v 6 =.'.'.2X2X2XrXrXaXfXkXkXlXlXlXxXxXxXxXxXkXkXhXkXgXsXaX4X:XOXK.W { f.Q 0.$.b.V.R.R.B.s.f.2.2.t nX",
"c m N B c b B M m B I L I I F 4 *.'.'.1X6XrXeXrX9XaXgXgXhXkXlXlXxXxXhXxXhXhXdXdXgXfXsX9X$X+XZ.Q Q 0.0.2.$.V.n.n.R.h.f.f.2.>.k mX",
"c c B m b c L N N I  .I I P $.4 -./.'.1XeX8XeXwX9X4X9X9XqXuXdXlXhXhXaXuXuXaXsXsXaXyXtXuX$XXXZ.Q 0.8.1.8.q.V.z.R.R.h.f.g.2.<.r vX",
"m B c B N n N N I L I I P / T 2 Z.!.F.Q.~.L.(.Q.K.D.I.J.F..X>XdXdXaX_..X_._.~.P.P.P.U.J.P.).J.Q s.s.+.8.q.m.h.V.R.p.d.g.2.<.t }.",
"m m B B m m I N N ~ b.~ ~ ^ ~ n Q.Q.O. .O.a.=.O.%.O.$.=.m.m.A.,X<X_.A.m.i.O.( +.q.i.i.+.O.P.(.W 0.q.e.+.$.m.X.n.R.&.s.d.w.:.t bX",
"m m m B m N L F B b.x.c.b.c.m./ !.!.D.F.J.%.Y ` 8.o.=.N.m.V._.4X,XU.C.C.N.i.8.f.+.s.D.Y.U.#X).Q s.u.e.| v.v.S.-.R.&.s.w.2.:.;.bX",
"c m N B N N I N F b.c.b.b.c.A.=.Q.'.'.R.#.h.oX7.4.|.(.!.^.!.4XhXfX4X^.OXU.-XE.5.z.W.O.L.$X9X.X>.( 0.0.! v.N.H.v.-.#.0.8.[ l ,.mX",
"m N c I b N N L M c.c.b.b.^ %.=.!.&X5X&X).(.).(. X].4X6X+X@XqXhXdX6X:X6X0X.X%X X%X X X3XpXyX).! Q Q 1.! m.m.=.v.V.{ 0.8.[ k 8 8 ",
"c x c B b N N N M ^ c.c.c.P P M.V.&X5XeX6X6X2X4XqXrXrX0X:X2XqXhXlXaX4X0XfXdXqXyX9X9XpXaXsX9XK.( Q R W ! v.c.$.R.n.K 8.G } R >.:.",
"*.-.N N m b N I N I c.c.^ V N O.V.&X2XeXeXsXsXsXfXdXrX4X:X4XrXhXhXaX6X4XuXdXhXgXhXgXsXsXpX7XH.0.W W ! ! $.$.X.X.-.J ! f l p u k ",
"G.r.F B b m m L m V ....P H m o.=.'.@X6XrXrXfXfXgXdXqX4X:X>X0XhXhXuX0X>X0XdXhXhXgXdXsXaXiX>Xg.0.H W s.g.W Q W Q W W W g W g Z l ",
"S.h.&.B c b m L m B ~ S b v A O. .!.'.:X4XqXfXgXdXdXqX:X!.,X0XdXdXuX7X+X,XdXdXhXhXdXaX9X7XOX0.0.Z Z H.k.d Z ! ! P U W s W Q >.>.",
"*.h.e.h.x x m F m I b < 4 F v o. .B.!.@X:XqXrXfXdXdXqX'.:X:X0XdXdXuX<X,X;XqXdXhXdXdXpX7X$XP.! 1.d W W g.Z Z W ~ H W W s H Q ( ! ",
"*.h.&.k.v x m m L A A Z D A 6 b m ) !.'.@X2XqXqXqXqX:X.X:X,X0XhXxXhXuX>X3X,XaXdXaXaX9X7XOXg.W d H Q Q H.q.W Z P S Z Z s Z E R Z ",
"r.h.*.k.b x b V T F L / Y Z 4 2 b I C.!.'.:X0XqXqX0X4X:XY.].dXgXdXhX$X_.uX0X0XaXaXuX7X+X~.0.G H H W ! H.0.s E f z S Z q s W H Z ",
"*.h.&.k.L 2 v ) Y ) T L b C 4 4 b L O.^.'.:X6XqXqXqX0X0XU.=.^.;XY.).$.I.4XrX0XqXaX9X7XOXZ.Q Z f s Z Z k.H s 1 G z S z : q W H d ",
"r.h.*.h.T 2 b ) U ! U Z C b 6 4 6 F / C.'.'.4X6XqX6X:X'.C.$.$.=.$.m.$.N./.@XqXuXuX7X%X X+.Z Z f s d H k.Z ; 3 f z Z Z : & d q 3 ",
"d.h.*.r.+.2 v T F F v m D 4 6 5 4 b L  .V.'.2XqXqX:X!.I.C.C.A.I._.Y.>XI.F.I._.uXuX7X+XA.! d H H d Z W P.g 1 1 s Z U d : & d d s ",
"h.p.r.@.d.2 N M A A 2 F C 3 f 4 4 C A o.$.D.].4X4X'.Q.A.F.N.T.;X,X{.T.{.I.U.F.qX4XOXK.( H d d d d d e.G.: u u 4 Z Z d : & d S S ",
"Z.e.h.@.p.2 M 6 v m H F Z 3 3 3 3 6 v U o.M.Q.>X@X!.Q.F.T.{.{.{.{.{..XT.Y.U.D.>X$XK.9.Q d 4 3 G Z Z e.d.4 Z 4 4 b Z , & & < S A ",
"B.*.r.I C 2 4 2 b D b - 3 3 > 3 3 f 3 b A ( a.!.].I./._..X;X,X<X<X<X%X,X:XU.K.(.J.9.W Z 3 s f d Z U g.0.S ^ ~ 4 4 Z 3 & & , S Z ",
"Z.| I D L 6 2 % 2 - - * 3 3 * 4 > < 3 4 C U T a.A.L.I.!.Y._._.^.P.Y. X(.^.L.J.C.q.! A Z < d Z Z H U h.W v v d d d v < & o 4 A s ",
"S.b @.Y F b < * 1 $ $ - - * 1 3 - - < 4 4 C Y P $.=.D.I.K.A.i.i.i.N.A.I.U.D.M.i.! U ! Z d d Z G F d { W A A Z Z : z - & o , A s ",
"Z.6 Y A 2 b 2 $   $ % - * * * * - * < 4 C v D U / ( =.D.U.U.A.N.A.U. X^.U.M.$.o.T A M.A Z 4 H d Z s 4 Z Z Z U Q > Z - o o z S : ",
"h.3 T v , v , * 1 - 3 3 - $ d - > * < Z L Z Z L I / $.m.A.P.K.N.Y.T.P.Z.M.$.( T F i.J.A Z 4 < < 3 : : 3 f G A Z 3 4 * o   v n G ",
"6 | ^ b % > * < 1 1 1 & o - - 3 * > 2 A P $., U S V  .$.$.i.M.A.A.A.q.m./ ( / P O.~.A.T < d s : : & : = : f G d 3 4 &     Z n l ",
"~ b.b.x.= . = s 1 # o ; = = 1 3 > > 2 L ( N.#.b A P / O.$.O.( +.u.O.$.( ( P S %.^.A.a.S , d 3 E Q H : : & h G W 3 < & .   n z l ",
"x.^ v - 9 # 1 # # e e 1 1 ; 5 3 < > U L ~ M.L.B.S A P P ~ S U U H S ! P ( L B.(.XXN.( T H < f Z E d : o & : l s i k p &   v , h ",
"8 # # q 1 9 y ; y q 1 y ; 1 - 4 < 3 A T =.F.P./.L.%.S A A U v v Z Z Z P / C.OX#XXXD.%.q.! d : 4 G 3 & & & = ; q a j w j j p u y ",
"9 q 9 9 # y 9 9 y q # # 1 3 3 5 < f f / B.Q.(.`.].).F.i.%.o.o.o.( O.i.A.XX#X#X#X#X(.G.B.! > 4 W G f & o : q 9 j a i 9 i i w q q ",
"9 9 9 9 q # y # y 9 9 # s 5 5 3 1 4 3 D C.`.XXXX#XOX]./.Q.Q.U.U.Y.U.(.OX&X*X&X#X#XXXG.G.3 < - 3 Q d = o ; g y p i @ @ i 9 9 w 9 ",
"9 # 9 # 9 y # r # 9 9 1 s f 3 - 3 3 - 3 K.XX#XXX#X*X#X#XXXXXXXXXXXXX$X3X-X=X&X&X&XoXW.t.& 3 < < Q f & X 1 g p i 9 O 9 0 9 9 i O ",
"9 9 y 9 # q # # y q 1 p s G s 3 = 3 ; = k.&X&X#X#X=X5X*X*X#X#X#X#X*X8X8XiX*X*X=X=X#XH.; : 3 C d g : + o o q p 9 # O r r 9 i O @ ",
"9 9 e 9 e 9 # 9 e # 9 p h K s = K 1 u y j -XtX=X#X*X8X8X*X*X3X*X5X8XwXwX-X=X-XtXtXXXp w u u s G u u ; + # # y @ # # i O p 7 O 9 ",
"9 9 9 r 9 O # 9 + # 9 1 1 1 5 1 u y u p + z.pXiX*X=XtXiXtX8X8X8XiXiXiXpXtXtXtXtX Xu i p u q q s u u # o ; i y + O i 9 @ r O 9 8 ",
"9 9 9 e r 8 9 9 O 1 1 1 1 1 1 o o p p i a X E.iX=X%XtXiXtXtXtXtX8XiXpXtX=X8X7Xz.+ p a q p q # p p ; + ; # r i O O i 9 7 9 @ i 8 ",
"8 8 9 9 9 7 9 # e q ; 1 = 1 # o # y y y a a X f.=X-XiXiX=X=XtXtX=XtXtXtX*X Xk 7 i j w w p 9 q i q # + X 9 i i O 8 i 7 7 8 9 0 0 ",
"9 9 9 e 9 @ # # 1 O o ; o # # # # y y y q a a O 8 2.H.=X-X-X8X*X*X3X%XH.l O i p i q y i i # w w + + + X 0 i r O 0 r 7 7 7 i 8 9 ",
"0 8 8 9 9 @ 9 8 # # # O 9 q q # 9 9 y y 9 9 a p i 9 O O # 7 9 7 p p 7 7 i j p 0 9 y i i w 9 i 7 9 9 # + r i 8 7 0 0 7 8 O j 7 0 ",
"9 e 8 e 9 O 8 8 e e # e e e e 9 w 9 r i i w 7 j i j p i i j i p p i j a i p y 7 i i i w 9 9 w 7 w 7 8 O i t 7 7 j 0 7 8 X 0 8 0 ",
"e 8 8 e @ @ @ 8 e @ 9 e e r e e 0 8 e e i y 9 9 i i i i i i j i i i i i i w 9 9 i 0 0 w 8 w 8 0 9 9 9 7 t 8 7 8 0 0 7 0 X 8 8 0 ",
"8 e 8 8 @ 8 8 e 8 e e r r r e i r 9 9 r r i 0 w 9 i i i i w i i i i i i 0 w 9 i w 0 0 w 8 0 9 0 0 0 O 9 0 w 7 8 0 0 7 8 X 7 0 0 "
};
